<svg xmlns="http://www.w3.org/2000/svg" xmlns:xlink="http://www.w3.org/1999/xlink" width="500" zoomAndPan="magnify" viewBox="0 0 375 374.999991" height="500" preserveAspectRatio="xMidYMid meet" version="1.0"><defs><g/><clipPath id="bafb5b1ba4"><path d="M 75.472656 74.855469 L 299.265625 74.855469 L 299.265625 298.644531 L 75.472656 298.644531 Z M 75.472656 74.855469 " clip-rule="nonzero"/></clipPath><clipPath id="8c6c21d78a"><path d="M 187.367188 74.855469 C 125.570312 74.855469 75.472656 124.953125 75.472656 186.75 C 75.472656 248.546875 125.570312 298.644531 187.367188 298.644531 C 249.167969 298.644531 299.265625 248.546875 299.265625 186.75 C 299.265625 124.953125 249.167969 74.855469 187.367188 74.855469 Z M 187.367188 74.855469 " clip-rule="nonzero"/></clipPath><clipPath id="6a734c38f8"><path d="M 83.371094 82.492188 L 291.628906 82.492188 L 291.628906 290.746094 L 83.371094 290.746094 Z M 83.371094 82.492188 " clip-rule="nonzero"/></clipPath><clipPath id="056db878fd"><path d="M 187.5 82.492188 C 129.992188 82.492188 83.371094 129.109375 83.371094 186.617188 C 83.371094 244.125 129.992188 290.746094 187.5 290.746094 C 245.007812 290.746094 291.628906 244.125 291.628906 186.617188 C 291.628906 129.109375 245.007812 82.492188 187.5 82.492188 Z M 187.5 82.492188 " clip-rule="nonzero"/></clipPath><clipPath id="065280abcb"><path d="M 83.371094 82.492188 L 291.625 82.492188 L 291.625 290.746094 L 83.371094 290.746094 Z M 83.371094 82.492188 " clip-rule="nonzero"/></clipPath><clipPath id="a968edb382"><path d="M 187.5 82.492188 C 129.992188 82.492188 83.371094 129.109375 83.371094 186.617188 C 83.371094 244.125 129.992188 290.746094 187.5 290.746094 C 245.007812 290.746094 291.625 244.125 291.625 186.617188 C 291.625 129.109375 245.007812 82.492188 187.5 82.492188 Z M 187.5 82.492188 " clip-rule="nonzero"/></clipPath><clipPath id="e55e21718f"><path d="M 177 166 L 202 166 L 202 190 L 177 190 Z M 177 166 " clip-rule="nonzero"/></clipPath><clipPath id="4be6e851a3"><path d="M 166.507812 192.789062 L 162 160.855469 L 198.386719 155.71875 L 202.894531 187.652344 Z M 166.507812 192.789062 " clip-rule="nonzero"/></clipPath><clipPath id="1573f78312"><path d="M 166.507812 192.789062 L 162 160.855469 L 198.386719 155.71875 L 202.894531 187.652344 Z M 166.507812 192.789062 " clip-rule="nonzero"/></clipPath><clipPath id="a68e434075"><path d="M 164 167 L 180 167 L 180 183 L 164 183 Z M 164 167 " clip-rule="nonzero"/></clipPath><clipPath id="b329c33de1"><path d="M 166.507812 192.789062 L 162 160.855469 L 198.386719 155.71875 L 202.894531 187.652344 Z M 166.507812 192.789062 " clip-rule="nonzero"/></clipPath><clipPath id="6289faeac6"><path d="M 166.507812 192.789062 L 162 160.855469 L 198.386719 155.71875 L 202.894531 187.652344 Z M 166.507812 192.789062 " clip-rule="nonzero"/></clipPath><clipPath id="cc7edd35a4"><path d="M 173 158 L 186 158 L 186 171 L 173 171 Z M 173 158 " clip-rule="nonzero"/></clipPath><clipPath id="77ed60c84e"><path d="M 166.507812 192.789062 L 162 160.855469 L 198.386719 155.71875 L 202.894531 187.652344 Z M 166.507812 192.789062 " clip-rule="nonzero"/></clipPath><clipPath id="f87499494b"><path d="M 166.507812 192.789062 L 162 160.855469 L 198.386719 155.71875 L 202.894531 187.652344 Z M 166.507812 192.789062 " clip-rule="nonzero"/></clipPath><clipPath id="7895d04c96"><path d="M 137 196 L 248 196 L 248 231 L 137 231 Z M 137 196 " clip-rule="nonzero"/></clipPath><clipPath id="d12b3c75e3"><path d="M 125.351562 156.707031 L 235.578125 138.316406 L 247.921875 212.292969 L 137.695312 230.6875 Z M 125.351562 156.707031 " clip-rule="nonzero"/></clipPath><clipPath id="49ab9a921c"><path d="M 125.351562 156.707031 L 235.578125 138.316406 L 247.921875 212.292969 L 137.695312 230.6875 Z M 125.351562 156.707031 " clip-rule="nonzero"/></clipPath><clipPath id="1d6db6389e"><path d="M 134.609375 212.199219 L 245.089844 193.765625 L 248.132812 211.992188 L 137.652344 230.425781 Z M 134.609375 212.199219 " clip-rule="nonzero"/></clipPath><clipPath id="3325f4faf7"><path d="M 140 141 L 230 141 L 230 205 L 140 205 Z M 140 141 " clip-rule="nonzero"/></clipPath><clipPath id="dbd882ac2e"><path d="M 125.351562 156.707031 L 235.578125 138.316406 L 247.921875 212.292969 L 137.695312 230.6875 Z M 125.351562 156.707031 " clip-rule="nonzero"/></clipPath><clipPath id="2a4390a4be"><path d="M 125.351562 156.707031 L 235.578125 138.316406 L 247.921875 212.292969 L 137.695312 230.6875 Z M 125.351562 156.707031 " clip-rule="nonzero"/></clipPath></defs><rect x="-37.5" width="450" fill="#ffffff" y="-37.499999" height="449.999989" fill-opacity="1"/><rect x="-37.5" width="450" fill="#ffffff" y="-37.499999" height="449.999989" fill-opacity="1"/><g clip-path="url(#bafb5b1ba4)"><g clip-path="url(#8c6c21d78a)"><path fill="#c38d14" d="M 75.472656 74.855469 L 299.265625 74.855469 L 299.265625 298.644531 L 75.472656 298.644531 Z M 75.472656 74.855469 " fill-opacity="1" fill-rule="nonzero"/></g></g><g clip-path="url(#6a734c38f8)"><g clip-path="url(#056db878fd)"><path fill="#f3f5f7" d="M 83.371094 82.492188 L 291.628906 82.492188 L 291.628906 290.746094 L 83.371094 290.746094 Z M 83.371094 82.492188 " fill-opacity="1" fill-rule="nonzero"/></g></g><g clip-path="url(#065280abcb)"><g clip-path="url(#a968edb382)"><path stroke-linecap="butt" transform="matrix(0.75, 0, 0, 0.75, 83.372637, 82.490738)" fill="none" stroke-linejoin="miter" d="M 138.836494 0.00193296 C 62.159405 0.00193296 -0.00205717 62.158187 -0.00205717 138.835275 C -0.00205717 215.512364 62.159405 277.673826 138.836494 277.673826 C 215.513582 277.673826 277.669836 215.512364 277.669836 138.835275 C 277.669836 62.158187 215.513582 0.00193296 138.836494 0.00193296 Z M 138.836494 0.00193296 " stroke="#303030" stroke-width="12" stroke-opacity="1" stroke-miterlimit="4"/></g></g><path stroke-linecap="butt" transform="matrix(0.741476, -0.11275, 0.11275, 0.741476, 29.122656, 118.272179)" fill="none" stroke-linejoin="miter" d="M 110.161504 61.875203 C 105.920137 61.878243 102.369219 61.11702 99.496886 59.600267 C 96.643583 58.096944 94.494187 56.052668 93.048697 53.467441 C 91.592126 50.885797 90.863668 48.019755 90.861756 44.879614 C 90.865405 42.430453 91.343677 40.116683 92.306871 37.939869 C 93.251818 35.744476 94.568883 33.942834 96.248552 32.528226 C 97.951166 31.101302 99.940526 30.387044 102.221782 30.386233 C 103.138091 30.388595 103.598859 30.75368 103.597373 31.491003 C 103.597401 33.777408 104.56686 35.647529 106.505751 37.101365 C 108.446209 38.544902 110.83366 39.26618 113.673253 39.26598 C 115.706235 39.269562 117.838444 38.724536 120.078613 37.642764 C 122.32908 36.562558 124.500452 34.859213 126.593511 32.52758 C 128.694069 30.181282 130.454491 27.161614 131.864479 23.467011 C 133.218968 19.96416 134.615765 16.425598 136.060019 12.852105 C 137.499906 9.272681 138.718792 6.349786 139.711528 4.082636 C 136.808287 3.462046 134.113653 3.479021 131.618111 4.126845 C 129.138799 4.771868 127.140759 5.958945 125.623992 7.688076 C 124.120655 9.398175 123.36701 11.61739 123.369771 14.336203 C 123.36936 15.69007 123.704731 16.810512 124.381817 17.693166 C 125.05812 18.580968 125.891645 19.023807 126.886756 19.027616 C 127.305058 20.018427 127.329703 21.207521 126.951175 22.588181 C 126.593243 23.971974 125.871289 25.289876 124.788894 26.552969 C 123.721947 27.818411 122.337863 28.88285 120.640226 29.757369 C 118.956018 30.612857 117.005356 31.037981 114.781523 31.042254 C 112.252777 31.042308 110.126937 30.471444 108.398855 29.328879 C 106.687004 28.183514 105.393534 26.711921 104.524376 24.909735 C 103.668649 23.088518 103.23916 21.131923 103.238257 19.024504 C 103.240392 15.026261 104.048714 11.234899 105.675085 7.641686 C 107.308955 4.033809 109.65557 0.866209 112.705414 -1.867827 C 115.75839 -4.62246 119.384209 -6.77897 123.593951 -8.34094 C 127.813992 -9.901343 132.510965 -10.683285 137.684088 -10.681614 C 144.08515 -10.682877 148.081535 -9.248072 149.673245 -6.3772 C 151.283534 -3.524575 151.193292 0.360175 149.40252 5.277049 C 148.849067 6.941934 148.1695 8.951148 147.375684 11.295959 C 146.579067 13.62454 145.713853 16.127077 144.780823 18.79842 C 143.867608 21.478045 142.957073 24.105395 142.052802 26.691553 C 141.169911 29.275693 140.385941 31.590392 139.711975 33.632067 C 136.328354 43.653958 132.265085 50.869912 127.517802 55.273997 C 122.781601 59.674498 116.994191 61.876355 110.161504 61.875203 Z M 160.761757 58.000577 C 157.063279 58.001879 154.028602 57.171647 151.651011 55.519397 C 149.291217 53.854048 147.545445 51.649884 146.40183 48.915636 C 145.260564 46.165941 144.702903 43.146752 144.734779 39.853703 C 144.760723 36.56502 145.335489 33.270232 146.446428 29.98322 C 147.558151 26.69106 149.159401 23.678798 151.245812 20.940502 C 153.333788 18.191907 155.875725 15.991749 158.866474 14.339245 C 161.854423 12.670511 165.231889 11.835433 168.98779 11.837595 C 171.875292 11.834144 174.226791 12.376104 176.043072 13.458325 C 177.861702 14.5251 179.199046 15.950682 180.054322 17.740221 C 180.909598 19.52976 181.340985 21.43923 181.338185 23.467063 C 181.342459 25.690895 180.725823 27.909871 179.489844 30.113691 C 178.273678 32.325792 176.551184 34.160613 174.328295 35.613786 C 172.122418 37.059011 169.505433 37.777927 166.486071 37.782401 C 165.190412 37.780304 163.929442 37.688655 162.697231 37.51182 C 161.468152 37.314387 160.328599 36.909304 159.294802 36.29377 C 158.979682 36.114147 158.633575 36.103663 158.255697 36.267467 C 157.895615 36.418172 157.716112 36.801797 157.717187 37.41834 C 157.716803 39.014548 158.653841 40.231749 160.533451 41.070727 C 162.414627 41.899407 164.67522 42.311643 167.319597 42.313367 C 170.459738 42.311455 173.705011 41.514226 177.055417 39.921681 C 180.408172 38.313687 183.128737 35.908891 185.217111 32.707291 C 185.713579 31.971481 186.358973 31.711383 187.154078 31.921847 C 187.965413 32.129511 188.629799 32.541363 189.141302 33.161768 C 189.66467 33.773441 189.749698 34.392214 189.387652 35.006223 C 185.315797 42.521159 180.859468 48.233855 176.019448 52.139163 C 171.194875 56.04682 166.108717 58.002341 160.761757 58.000577 Z M 164.09335 30.859644 C 165.868544 30.860905 167.257047 30.28708 168.268375 29.144886 C 169.290002 28.004257 169.797617 26.848686 169.797152 25.673806 C 169.796926 24.635935 169.446917 23.750336 168.736826 23.015442 C 168.034233 22.265883 166.974718 21.888775 165.562645 21.89005 C 163.772004 21.886441 162.354172 22.445269 161.300416 23.554671 C 160.262107 24.666421 159.746211 25.841806 159.743213 27.07411 C 159.747685 28.049408 160.098477 28.929858 160.806671 29.711878 C 161.512064 30.477666 162.607623 30.860255 164.09335 30.859644 Z M 221.040892 32.707387 C 221.537359 31.971577 222.167306 31.70913 222.935882 31.920828 C 223.715539 32.128944 224.363694 32.543595 224.870832 33.158068 C 225.398566 33.775673 225.510122 34.393212 225.211432 35.006319 C 224.714328 36.058124 223.985897 37.522551 223.025357 39.404749 C 222.075898 41.283363 220.88232 43.277635 219.443055 45.397861 C 217.998642 47.517304 216.238445 49.530779 214.167614 51.439068 C 212.107082 53.348922 209.741821 54.906884 207.067466 56.10702 C 204.39311 57.307156 201.324898 57.910044 197.868762 57.911319 C 193.812312 57.910869 190.597415 57.053233 188.218922 55.337627 C 185.863375 53.609705 184.246331 51.425115 183.373723 48.779491 C 182.518912 46.120769 182.27649 43.349707 182.652389 40.461941 C 183.014408 37.561527 183.870771 34.978621 185.222261 32.708074 L 185.608154 32.145106 C 187.261095 29.936203 188.897446 27.524585 190.517209 24.910253 C 192.158352 22.293905 193.83936 19.831127 195.571316 17.518339 C 197.298906 15.199619 199.079487 13.294608 200.909476 11.792225 C 202.760844 10.287826 204.666584 9.534511 206.636994 9.533847 C 209.53916 9.537894 211.681018 10.211289 213.061001 11.564332 C 214.446134 12.918158 215.105929 14.330271 215.045533 15.801453 C 215.044047 16.538775 214.723977 17.153899 214.074243 17.650406 C 213.429658 18.147697 212.65511 18.598884 211.755749 19.004751 C 210.869035 19.396737 210.083857 19.883185 209.409731 20.470811 C 208.731239 21.052505 208.395178 21.807438 208.392816 22.723747 C 208.392989 23.276935 208.824176 24.390875 209.682014 26.059635 C 210.553281 27.709364 211.475615 29.577587 212.451365 31.648856 C 213.444911 33.707026 214.128275 35.691689 214.502238 37.597694 C 215.917775 37.538996 217.12428 37.053397 218.132835 36.137314 C 219.15482 35.2022 220.124172 34.058891 221.040892 32.707387 Z M 194.556052 38.884574 C 196.583886 38.887374 198.152038 38.240771 199.265659 36.945549 C 200.378498 35.655476 200.932853 34.053947 200.933091 32.146893 C 200.933529 31.035368 200.758895 29.897222 200.413557 28.738386 C 200.069785 27.569252 199.557658 26.363981 198.880757 25.133655 C 198.267213 23.902426 197.52989 23.90094 196.673155 25.135128 C 195.498913 26.863662 194.253816 28.607761 192.932716 30.366645 C 191.608816 32.109299 190.431083 33.652914 189.392801 35.007006 C 189.392364 36.118531 189.86797 37.044301 190.815253 37.778386 C 191.772834 38.514036 193.0232 38.883287 194.556052 38.884574 Z M 256.769638 32.708836 C 257.266106 31.973026 257.901202 31.711362 258.665412 31.917128 C 259.444286 32.130393 260.092441 32.545045 260.604728 33.160301 C 261.127313 33.777123 261.244801 34.390295 260.940179 35.007768 C 260.448224 36.060356 259.719793 37.524783 258.754887 39.401049 C 257.810577 41.280446 256.616215 43.279867 255.171802 45.39931 C 253.727388 47.518753 251.972341 49.533011 249.896361 51.440517 C 247.835829 53.350372 245.471351 54.903184 242.796212 56.108469 C 240.121857 57.308605 237.053645 57.911493 233.598291 57.907619 C 229.541059 57.912318 226.326162 57.054682 223.952818 55.339859 C 221.592121 53.611154 219.975078 51.426565 219.10247 48.780941 C 218.247658 46.122218 218.006019 43.346008 218.381136 40.46339 C 218.743154 37.562976 219.6003 34.974921 220.951007 32.709523 L 221.336901 32.146555 C 222.989841 29.937652 224.626193 27.526034 226.251888 24.907337 C 227.887098 22.295354 229.574039 19.828211 231.300846 17.514639 C 233.027653 15.201068 234.809017 13.290908 236.644155 11.789309 C 238.489591 10.289275 240.40048 9.536743 242.365741 9.535296 C 245.268689 9.534194 247.409764 10.212739 248.789748 11.565782 C 250.174881 12.919608 250.834675 14.33172 250.774279 15.802902 C 250.777942 16.541008 250.452724 17.155348 249.808139 17.652639 C 249.159188 18.143997 248.38464 18.595184 247.485279 19.001051 C 246.598564 19.393037 245.818536 19.880268 245.139261 20.467111 C 244.465134 21.054737 244.124707 21.803739 244.127495 22.72083 C 244.126884 23.279167 244.552923 24.392324 245.41076 26.061084 C 246.282027 27.710813 247.205144 29.573887 248.185261 31.651088 C 249.173658 33.708475 249.857021 35.693138 250.236134 37.599926 C 251.646521 37.540445 252.858958 37.05048 253.862364 36.133614 C 254.883566 35.203649 255.852919 34.06034 256.769638 32.708836 Z M 230.284799 38.886024 C 232.313415 38.883674 233.886717 38.237854 234.994406 36.946998 C 236.108027 35.651776 236.666748 34.056179 236.66777 32.143976 C 236.663058 31.031668 236.492791 29.899454 236.147453 28.740618 C 235.798532 27.570701 235.291553 26.366213 234.614653 25.135887 C 233.995959 23.903875 233.258637 23.902389 232.401902 25.136578 C 231.233591 26.860745 229.983345 28.604062 228.662246 30.362945 C 227.338346 32.105599 226.15983 33.654363 225.121548 35.008455 C 225.12111 36.11998 225.596716 37.045751 226.543999 37.779835 C 227.50673 38.516268 228.751947 38.884737 230.284799 38.886024 Z M 271.921277 57.997997 C 268.227948 58.000081 265.192488 57.174998 262.814898 55.522748 C 260.455886 53.85225 258.704182 51.652452 257.566499 48.913838 C 256.420084 46.16336 255.867572 43.144954 255.893516 39.856271 C 255.925392 36.563222 256.494226 33.2728 257.611098 29.981423 C 258.72282 26.689262 260.318921 23.676217 262.409698 20.943853 C 264.498457 18.190109 267.040395 15.989952 270.031144 14.337447 C 273.019092 12.668713 276.391409 11.832852 280.15246 11.835797 C 283.034029 11.836712 285.386311 12.373523 287.207741 13.456528 C 289.026371 14.523302 290.362932 15.954033 291.218991 17.738423 C 292.074267 19.527963 292.505654 21.437432 292.502854 23.465265 C 292.501979 25.688315 291.885343 27.90729 290.65373 30.117042 C 289.438347 32.323994 287.715853 34.158815 285.492181 35.617138 C 283.281938 37.05643 280.669319 37.781279 277.645591 37.77982 C 276.355081 37.778506 275.093328 37.692006 273.8619 37.510022 C 272.627672 37.311807 271.493268 36.907506 270.459471 36.291972 C 270.144352 36.112349 269.797461 36.107014 269.419583 36.270818 C 269.059502 36.421524 268.879998 36.805148 268.881073 37.421692 C 268.881472 39.01275 269.81851 40.229951 271.69812 41.068929 C 273.574147 41.896826 275.839889 42.309845 278.484266 42.311569 C 281.624407 42.309657 284.86968 41.512429 288.220086 39.919883 C 291.572841 38.311889 294.293406 35.907093 296.380998 32.710643 C 296.877465 31.974833 297.523642 31.709585 298.318747 31.920049 C 299.130082 32.127714 299.793685 32.544714 300.300822 33.159187 C 300.828557 33.776792 300.909218 34.389633 300.551538 35.009574 C 296.480467 42.519361 292.024137 48.232058 287.184117 52.137365 C 282.359544 56.045022 277.273386 58.000543 271.921277 57.997997 Z M 275.258019 30.857847 C 277.033213 30.859107 278.420933 30.290431 279.427112 29.147454 C 280.448739 28.006826 280.962286 26.846888 280.961038 25.677157 C 280.960812 24.639286 280.610803 23.753687 279.901495 23.013644 C 279.193753 22.263302 278.139387 21.886977 276.722165 21.887469 C 274.93589 21.889792 273.513692 22.442688 272.464302 23.558022 C 271.425994 24.669773 270.910881 25.840008 270.907882 27.072312 C 270.906422 28.051976 271.263147 28.928061 271.966191 29.709297 C 272.676733 30.475869 273.772293 30.858457 275.258019 30.857847 Z M 275.258019 30.857847 " stroke="#f0dfc8" stroke-width="6.925335" stroke-opacity="1" stroke-miterlimit="4"/><path stroke-linecap="butt" transform="matrix(0.741476, -0.11275, 0.11275, 0.741476, 29.122656, 118.272179)" fill="none" stroke-linejoin="miter" d="M 24.728676 225.874773 C 20.72965 225.877786 17.108541 225.058477 13.864568 223.421992 C 10.634475 221.798155 8.079717 219.37088 6.200292 216.140165 C 4.337098 212.90665 3.405128 208.919143 3.40595 204.167347 C 3.403202 200.547672 3.892475 197.503295 4.867839 195.03858 C 5.863799 192.576998 7.124317 190.592905 8.65969 189.087869 C 10.19148 187.571751 11.804807 186.489488 13.50482 185.841864 C 15.198901 185.198605 16.728807 184.872815 18.077524 184.872443 C 19.252404 184.871978 20.177803 185.091719 20.854504 185.526516 C 21.530422 185.966463 21.86797 186.51827 21.864799 187.197386 C 21.867559 187.872136 21.604462 188.459046 21.07629 188.952965 C 20.549684 189.436587 20.011453 190.06595 19.455664 190.845422 C 18.896293 191.613812 18.618491 192.851743 18.620695 194.569513 C 18.620629 197.029755 19.294477 199.007702 20.648955 200.49384 C 22.016079 201.966096 23.895118 202.704892 26.286855 202.705077 C 28.509905 202.705952 30.324645 201.99675 31.740593 200.584186 C 33.151391 199.170838 33.85896 197.323928 33.85815 195.042672 C 33.85661 193.251248 33.379119 191.471742 32.416162 189.697438 C 31.471002 187.910035 30.394194 186.018323 29.191669 184.017934 C 28.006941 182.004448 26.928089 179.849014 25.971343 177.548834 C 25.022095 175.233989 24.549223 172.696564 24.548359 169.930625 C 24.54816 167.091032 25.181424 164.416251 26.443003 161.905499 C 27.706931 159.3793 29.658309 157.321142 32.30307 155.726659 C 34.949397 154.121878 38.301569 153.314563 42.358018 153.315013 C 45.99314 153.314613 48.899964 153.946285 51.07849 155.210027 C 53.273246 156.470969 54.858439 158.102823 55.834853 160.100437 C 56.826714 162.100401 57.323381 164.204184 57.324855 166.411786 C 57.323369 169.193173 56.581854 171.783006 55.093593 174.190801 C 53.618762 176.579566 51.621466 178.420014 49.096555 179.711361 C 48.736288 180.20974 48.147627 180.304614 47.339304 180.007848 C 46.539263 179.691269 45.879456 179.180018 45.354734 178.473312 C 44.830012 177.766605 44.784161 177.132717 45.221546 176.577578 C 45.653781 176.021656 45.994209 175.272655 46.233312 174.323859 C 46.490211 173.361964 46.53443 172.378266 46.371117 171.373546 C 46.221234 170.349796 45.818618 169.498343 45.172786 168.825902 C 44.527736 168.148312 43.55699 167.811043 42.266479 167.80973 C 40.733627 167.808443 39.398845 168.306145 38.252617 169.296121 C 37.113104 170.276582 36.54062 171.928037 36.539533 174.256419 C 36.481327 176.302168 37.021085 178.365089 38.162391 180.456265 C 39.304479 182.542291 40.64392 184.716277 42.176348 186.972291 C 43.711908 189.207709 45.061223 191.593925 46.231791 194.116274 C 47.407509 196.639407 47.991552 199.346515 47.989854 202.233234 C 47.990692 206.800895 46.991998 210.874132 44.994557 214.447797 C 42.993532 218.010381 40.250287 220.806844 36.765605 222.832037 C 33.295588 224.864729 29.280106 225.876735 24.728676 225.874773 Z M 59.434573 222.001333 C 56.173653 222.000684 53.899125 221.091118 52.60584 219.271852 C 51.312556 217.452586 50.665541 215.194235 50.666363 212.486503 C 50.6698 210.142674 50.957978 207.58927 51.54713 204.82349 C 52.131132 202.056927 52.884724 199.35303 53.802757 196.711015 C 56.939896 187.721089 59.60281 180.186831 61.781984 174.101525 C 63.974588 167.99719 66.086651 163.392581 68.113806 160.281769 C 70.140962 157.170956 72.38981 155.616365 74.855201 155.617214 C 76.762255 155.617452 77.964527 156.337629 78.462017 157.777743 C 78.958723 159.223006 78.492076 161.391034 77.065659 164.292908 C 74.554935 169.405862 72.388037 174.128569 70.573695 178.472893 C 68.754205 182.816434 67.318404 186.9233 66.264729 190.80379 C 65.768488 192.577471 65.414286 194.283191 65.207272 195.921733 C 64.997458 197.544045 65.196961 198.865092 65.81608 199.88644 C 66.430049 200.907005 67.66364 201.421216 69.513271 201.417991 C 71.104329 201.417592 72.504604 201.008872 73.705362 200.179966 C 74.907687 199.340761 75.995801 198.178634 76.972506 196.709814 C 77.468973 195.974004 78.115151 195.708757 78.910255 195.919221 C 79.720807 196.132034 80.385193 196.543886 80.89748 197.159142 C 81.420065 197.775964 81.505875 198.389588 81.143047 199.008746 C 80.528627 200.000566 79.783514 201.436116 78.913642 203.311028 C 78.055633 205.177207 77.02481 207.175155 75.825538 209.310802 C 74.623466 211.430218 73.214526 213.45496 71.60745 215.39689 C 70.016604 217.336021 68.221996 218.917538 66.222058 220.15174 C 64.222121 221.385943 61.958171 222.000496 59.434573 222.001333 Z M 120.930564 196.708792 C 121.294295 196.15299 121.872871 195.951218 122.667073 196.098327 C 123.481872 196.248567 124.178599 196.586314 124.767552 197.113132 C 125.351356 197.639167 125.455414 198.27137 125.079726 199.009741 C 124.224849 200.855324 123.102005 202.765524 121.723057 204.731608 C 120.338177 206.702058 118.612976 208.346811 116.536372 209.669451 C 114.481148 210.990074 111.94128 211.652231 108.917553 211.650772 L 107.816326 211.6519 C 105.54728 214.794417 102.826503 217.304546 99.653995 219.182285 C 96.481487 221.060024 93.167164 221.999532 89.711028 222.000807 C 85.596372 222.002042 82.182171 220.618888 79.478725 217.85291 C 76.772478 215.070701 75.420322 211.282711 75.422258 206.488939 C 75.420983 203.032802 76.05158 199.509435 77.314048 195.918837 C 78.578864 192.312791 80.342724 188.993358 82.611557 185.956173 C 84.898187 182.905889 87.572741 180.457219 90.636003 178.605013 C 93.719078 176.761088 97.105488 175.832543 100.803183 175.83639 C 103.326781 175.835553 105.604175 176.345172 107.634583 177.370395 C 109.662974 178.374238 111.277947 180.052765 112.481069 182.395678 C 113.681391 184.72236 114.283165 187.832548 114.281241 191.725459 C 114.285741 194.987163 113.825584 198.151868 112.906702 201.21521 L 113.538693 201.216484 C 114.892559 201.216895 116.184038 200.865386 117.419062 200.157591 C 118.648938 199.449013 119.819438 198.299413 120.930564 196.708792 Z M 94.988615 202.884241 C 96.521467 202.885528 97.871365 202.427002 99.043458 201.509445 C 100.2179 200.576442 101.142144 199.452614 101.817757 198.127666 C 102.492586 196.807866 102.833623 195.500528 102.830571 194.204085 C 102.830199 192.855368 102.43617 191.704933 101.637402 190.756363 C 100.8402 189.797494 99.548853 189.316647 97.758212 189.313038 C 96.287933 189.315998 94.978777 189.74911 93.839476 190.624239 C 92.698159 191.477988 91.799992 192.568904 91.156057 193.893401 C 90.507757 195.211967 90.18855 196.548966 90.188139 197.902832 C 90.187728 199.256698 90.552097 200.428964 91.291543 201.421196 C 92.028189 202.397197 93.260547 202.884879 94.988615 202.884241 Z M 124.623649 221.999323 C 122.474253 221.999112 120.813163 221.351408 119.639596 220.061363 C 118.466029 218.771317 117.882331 217.170584 117.883352 215.258381 C 117.883564 213.108985 118.071321 210.419142 118.446624 207.188851 C 118.805696 203.961361 119.63196 200.467747 120.925415 196.708009 C 122.217185 192.890066 123.478658 189.409948 124.714199 186.273589 C 125.945374 183.131298 127.193072 180.607899 128.452926 178.697461 C 129.717929 176.787805 130.964008 175.834085 132.196312 175.837084 C 133.250413 175.834058 133.986767 176.188367 134.406157 176.894861 C 134.841777 177.598555 135.059024 178.42182 135.060245 179.34921 C 135.058958 180.882062 135.516555 181.926263 136.432253 182.486962 C 137.364965 183.039711 138.568338 182.574709 140.043156 181.086805 C 141.769923 179.431754 143.555945 178.149218 145.407155 177.234834 C 147.256347 176.299069 149.191893 175.83477 151.22051 175.83242 C 153.490684 175.835193 155.286647 176.392773 156.608398 177.50516 C 157.932498 178.6021 158.807653 179.983742 159.244163 181.651653 C 159.3668 182.265608 159.608173 182.618404 159.968281 182.71004 C 160.34462 182.798876 160.867099 182.446332 161.546799 181.648825 C 163.331626 179.681242 165.212324 178.191838 167.182176 177.190131 C 169.15001 176.167043 171.245844 175.653362 173.468894 175.654238 C 177.092934 175.657422 179.637779 176.486924 181.11216 178.154609 C 182.599187 179.808412 183.343558 181.807619 183.34527 184.152231 C 183.344886 185.748439 183.097555 187.201731 182.600928 188.527556 C 182.115383 189.849798 181.629387 191.140362 181.131858 192.402831 C 180.639478 193.666083 180.388896 195.071467 180.390409 196.620549 C 180.388857 199.818114 181.899945 201.417626 184.918524 201.418302 C 186.335746 201.41781 187.514608 200.975421 188.460258 200.091918 C 189.419339 199.189385 190.359813 198.062758 191.277316 196.706104 C 191.773783 195.970294 192.419178 195.710196 193.214282 195.92066 C 194.025618 196.128324 194.68922 196.545325 195.201507 197.160581 C 195.724092 197.777403 195.809902 198.391027 195.447074 199.010185 C 194.832654 200.002006 194.088325 201.432406 193.217669 203.312467 C 192.35966 205.178647 191.328837 207.176594 190.130348 209.307092 C 188.928276 211.426509 187.518553 213.456399 185.91226 215.393181 C 184.321414 217.332311 182.526023 218.918977 180.526085 220.15318 C 178.526931 221.382233 176.262198 222.001936 173.739383 221.997623 C 170.794458 221.997611 168.734058 221.031046 167.564114 219.093562 C 166.38902 217.155295 165.80491 214.864364 165.807418 212.214838 C 165.805705 209.870227 166.128508 207.643448 166.772243 205.523421 C 167.421127 203.404177 168.069136 201.463919 168.715485 199.707796 C 169.357469 197.94574 169.684718 196.451918 169.682567 195.218831 C 169.681559 194.186109 169.360215 193.38916 168.712604 192.83235 C 168.064993 192.275539 167.216711 191.999038 166.168542 191.997698 C 164.377118 191.999238 162.732299 192.734279 161.228153 194.207186 C 159.724006 195.680094 158.510375 197.529074 157.576961 199.752562 C 156.661343 201.962951 156.204782 204.237877 156.201346 206.581706 C 156.200935 207.935572 156.305709 208.978804 156.520036 209.717334 C 156.745444 210.452282 156.855368 211.496297 156.854957 212.850163 C 156.856443 214.156904 156.652084 215.50083 156.247027 216.882725 C 155.841971 218.26462 155.052838 219.435333 153.878847 220.400015 C 152.723436 221.346449 150.971241 221.817556 148.626629 221.819269 C 146.54059 221.818155 144.78022 221.234378 143.351452 220.063572 C 141.938914 218.889966 141.235949 216.79169 141.236625 213.773112 C 141.232564 211.443947 141.620288 209.205968 142.384351 207.056824 C 143.166994 204.889433 143.94036 202.852337 144.70445 200.945534 C 145.473688 199.039515 145.856768 197.317114 145.858055 195.784262 C 145.855905 194.551175 145.535556 193.643745 144.887494 193.055256 C 144.238649 192.471917 143.392716 192.179969 142.339398 192.177846 C 140.564204 192.176586 138.92062 192.938155 137.404277 194.456622 C 135.901365 195.956058 134.682372 197.909587 133.753231 200.312843 C 132.836738 202.702218 132.375174 205.287208 132.378837 208.069377 L 132.375375 212.214928 C 132.374088 213.74778 132.189449 215.273824 131.81116 216.791494 C 131.450667 218.296066 130.718295 219.543897 129.603745 220.533422 C 128.506991 221.509848 126.846698 222.000198 124.623649 221.999323 Z M 235.234592 196.710232 C 235.593174 196.153646 236.172532 195.946725 236.9711 196.099766 C 237.78075 196.249223 238.482626 196.587753 239.06643 197.113788 C 239.655383 197.640606 239.759441 198.272809 239.384536 199.006032 C 238.523727 200.855981 237.406032 202.766963 236.021935 204.732264 C 234.642204 206.703497 232.911854 208.347467 230.840399 209.670891 C 228.780026 210.990731 226.240158 211.652887 223.22158 211.652211 L 222.115204 211.652557 C 219.846158 214.795074 217.125381 217.305202 213.958022 219.183724 C 210.785514 221.061464 207.471191 222.000971 204.015055 222.002246 C 199.896033 221.997549 196.486981 220.615178 193.782752 217.854349 C 191.076505 215.072141 189.724349 211.28415 189.726286 206.490378 C 189.725011 203.034242 190.355607 199.510874 191.618075 195.920276 C 192.877742 192.313447 194.647534 188.989648 196.915584 185.957612 C 199.197065 182.906545 201.871619 180.457875 204.94003 178.606452 C 208.018739 176.756595 211.409515 175.833982 215.10721 175.837829 C 217.630808 175.836993 219.908202 176.346611 221.934244 177.365902 C 223.961852 178.374894 225.582758 180.049055 226.779947 182.396334 C 227.985418 184.723799 228.587192 187.833988 228.585269 191.726899 C 228.584619 194.987819 228.124462 198.152525 227.210729 201.21665 L 227.84272 201.217923 C 229.191437 201.217552 230.488848 200.861676 231.717941 200.158247 C 232.952965 199.450452 234.123465 198.300853 235.234592 196.710232 Z M 209.287493 202.884898 C 210.820345 202.886184 212.175392 202.428441 213.347485 201.510885 C 214.521927 200.577881 215.441805 199.448122 216.121784 198.129105 C 216.797396 196.804156 217.133284 195.496035 217.134598 194.205524 C 217.135009 192.851658 216.735048 191.705589 215.941429 190.757802 C 215.14501 189.793784 213.853664 189.312937 212.06224 189.314477 C 210.59196 189.317437 209.282804 189.750549 208.139137 190.619746 C 206.997037 191.478645 206.104019 192.570343 205.455718 193.888908 C 204.811784 195.213406 204.487428 196.549622 204.487017 197.903488 C 204.486606 199.257354 204.856907 200.425254 205.591204 201.416703 C 206.327067 202.397853 207.559425 202.885535 209.287493 202.884898 Z M 297.64743 196.707519 C 298.021459 196.153283 298.605966 195.947145 299.404535 196.100185 C 300.197954 196.252443 300.889532 196.589407 301.478485 197.116225 C 302.062289 197.64226 302.16713 198.269314 301.791442 199.007685 C 300.935782 200.858417 299.81887 202.764251 298.43399 204.734701 C 297.049893 206.700002 295.323909 208.349904 293.248088 209.667395 C 291.192081 210.993167 288.658146 211.650958 285.655015 211.652631 C 284.65912 211.653971 283.70686 211.472292 282.792303 211.111958 C 280.503325 214.17769 278.083998 216.749462 275.529957 218.821342 C 272.977483 220.882924 270.345196 221.910338 267.642613 221.910299 C 266.352103 221.908986 265.134078 221.465629 263.98854 220.580229 C 262.850499 219.680164 261.969385 218.060547 261.353929 215.733241 C 260.735673 213.389704 260.615423 210.057718 260.991615 205.74758 C 259.383212 209.880882 257.613301 213.136176 255.672367 215.506746 C 253.732999 217.867018 251.794785 219.526795 249.856943 220.491224 C 247.917083 221.434275 246.090452 221.909867 244.378614 221.907705 C 241.91244 221.912005 239.89594 221.141771 238.316466 219.610884 C 236.750423 218.060966 235.617187 216.055309 234.911607 213.593129 C 234.206811 211.125801 233.866675 208.408368 233.897914 205.431314 C 233.92557 202.443179 234.309751 199.535598 235.045308 196.70779 C 235.605396 194.306365 236.323422 191.871006 237.209684 189.403279 C 238.111394 186.937901 239.113644 184.677467 240.211287 182.621194 C 241.320011 180.561337 242.476577 178.914408 243.680202 177.685554 C 244.88461 176.451551 246.132069 175.835206 247.42258 175.836519 C 248.339671 175.833732 249.045011 176.114838 249.540165 176.669539 C 250.035319 177.224239 250.285265 178.178914 250.284854 179.53278 C 250.285491 181.260848 249.931196 183.140405 249.227901 185.167084 C 248.518674 187.198129 247.82926 189.237455 247.152161 191.299727 C 246.475846 193.356849 246.136335 195.312409 246.13956 197.162039 C 246.135049 198.889324 246.550484 200.280084 247.376351 201.327602 C 248.203784 202.364823 249.45204 202.886531 251.116752 202.886796 C 253.38771 202.88442 255.139308 202.070789 256.370762 200.451051 C 257.605348 198.810717 258.43773 197.009127 258.873841 195.041916 C 259.234785 193.569022 259.41653 192.200584 259.413929 190.935819 C 259.415694 189.676987 259.443536 188.385242 259.502604 187.061368 C 259.577121 185.739843 259.826801 184.271103 260.250078 182.665447 C 261.121862 179.842548 262.202849 177.999739 263.492258 177.142167 C 264.789165 176.269931 266.477672 175.836554 268.564495 175.832519 C 272.441176 175.837242 274.38316 177.929001 274.382949 182.12246 C 274.379976 183.597106 273.960282 185.213844 273.118716 186.971891 C 272.29573 188.711691 271.465245 190.466156 270.63991 192.221403 C 269.813791 193.9818 269.40048 195.625849 269.399193 197.158701 C 269.399831 198.88677 269.815266 200.277529 270.64035 201.330197 C 271.467783 202.367417 272.711673 202.883193 274.381535 202.884241 C 276.051396 202.885289 277.479885 202.533541 278.667784 201.823848 C 279.865199 201.120871 280.904197 200.177808 281.777282 199.009323 C 281.518218 197.594928 281.301582 196.213326 281.123008 194.858584 C 280.94365 193.508991 280.849359 192.119651 280.850434 190.692131 C 280.851256 187.984399 281.176381 185.499831 281.822226 183.227347 C 282.464488 180.943782 283.480554 179.112173 284.866058 177.726589 C 286.245629 176.345371 287.983584 175.656102 290.070407 175.652067 C 292.477591 175.654601 293.985826 176.753199 294.601043 178.943495 C 295.217826 181.123494 295.017568 184.138065 293.995119 187.986425 C 292.988901 191.831986 291.221353 196.215035 288.694041 201.125274 C 288.995491 201.186918 289.264813 201.217335 289.507154 201.217308 C 289.764943 201.21963 290.013217 201.215238 290.250409 201.214428 C 291.619723 201.217188 292.911202 200.865679 294.130779 200.155535 C 295.359871 199.452106 296.530372 198.302506 297.64743 196.707519 Z M 314.072564 172.047553 C 311.864962 172.049027 309.956289 171.574404 308.345761 170.628834 C 306.753813 169.665015 305.960447 167.953377 305.961295 165.487986 C 305.956796 162.226283 306.870396 159.994514 308.685867 158.79548 C 310.50727 157.59208 312.669471 156.988395 315.176838 156.990358 C 317.52145 156.988646 319.506246 157.51699 321.126859 158.569458 C 322.768852 159.619909 323.464863 161.59069 323.226755 164.473069 C 322.968383 167.315489 321.978302 169.288022 320.249796 170.400184 C 318.539087 171.499248 316.479748 172.050087 314.072564 172.047553 Z M 303.842732 221.999231 C 300.760797 221.999457 298.570646 220.881457 297.278211 218.640863 C 295.988124 216.384823 295.343857 213.65802 295.34026 210.459672 C 295.340471 208.310277 295.549542 206.034595 295.973403 203.62826 C 296.407563 201.22349 296.963855 198.916316 297.642281 196.706736 C 299.806498 189.99224 301.902158 184.837245 303.928477 181.246898 C 305.957928 177.635955 308.296634 175.836886 310.941794 175.833462 C 313.027833 175.834576 314.076826 177.216311 314.07254 179.981467 C 314.075765 181.831097 313.719121 183.726101 313.013689 185.662896 C 312.308257 187.59969 311.617039 189.512305 310.941599 191.390442 C 310.266159 193.268578 309.928307 195.040003 309.927259 196.709865 C 309.925972 198.242717 310.309703 199.391586 311.078452 200.156472 C 311.841269 200.925725 312.842578 201.304518 314.074882 201.307517 C 315.502402 201.308592 316.689996 200.878067 317.636881 200.021093 C 318.583765 199.164119 319.520325 198.063237 320.453275 196.708933 C 320.949742 195.973123 321.582038 195.695228 322.345014 195.874466 C 323.113139 196.054486 323.761294 196.469138 324.285113 197.112489 C 324.813298 197.761772 324.916905 198.362297 324.600299 198.919997 C 323.98588 199.911818 323.264496 201.329902 322.435365 203.1794 C 321.608583 205.013451 320.609438 207.010947 319.437929 209.171889 C 318.267986 211.322532 316.919269 213.366968 315.402078 215.306762 C 313.901116 217.243755 312.19326 218.843733 310.288808 220.108259 C 308.379989 221.366853 306.22932 221.998633 303.842732 221.999231 Z M 327.565668 221.997857 C 324.109532 221.999132 321.562312 220.942735 319.924791 218.823519 C 318.3007 216.685271 317.48886 213.917183 317.491619 210.503805 C 317.48923 207.089645 318.168278 203.420867 319.520816 199.480459 C 320.33008 197.137997 321.224956 194.613629 322.200293 191.906573 C 323.193426 189.186419 324.270485 186.226153 325.426321 183.024991 C 324.072455 183.02458 323.045851 182.67355 322.336994 181.965185 C 321.632504 181.262752 321.163401 180.432798 320.938417 179.487187 C 320.732013 178.523328 320.732146 177.690972 320.939598 176.984969 C 321.16328 176.276165 321.553898 175.924643 322.112235 175.925254 C 324.814818 175.925293 326.936371 175.173185 328.470961 173.673298 C 330.018981 172.15438 331.097647 170.56936 331.712889 168.91387 C 332.824453 166.211725 333.90053 164.505142 334.940338 163.799271 C 335.987645 163.078736 337.101704 162.716053 338.276584 162.715588 C 340.004653 162.71495 341.078647 163.44723 341.500134 164.902128 C 341.934268 166.343144 341.447025 168.508041 340.033254 171.396033 C 339.353966 172.883738 338.982909 174.007392 338.903071 174.774946 C 338.844613 175.540483 339.249975 175.923484 340.124308 175.924731 L 344.923229 175.92745 C 345.539772 175.926375 345.937305 176.360867 346.120976 177.231709 C 346.301063 178.09147 346.283373 179.073934 346.072272 180.185034 C 345.86352 181.280687 345.465696 182.268566 344.880366 183.138373 C 344.291453 183.997099 343.536267 184.424889 342.603729 184.425328 C 339.775217 184.421944 337.687399 184.53646 336.335908 184.762943 C 334.981617 184.973196 334.031786 185.503093 333.474551 186.361368 C 332.917316 187.219643 332.328695 188.700061 331.713838 190.803407 C 330.72154 194.003095 330.859838 196.558131 332.118433 198.46695 C 333.384525 200.361104 335.374404 201.306409 338.092434 201.308797 C 339.942065 201.305572 341.590613 200.892459 343.03293 200.068675 C 344.47603 199.239742 345.652131 198.122604 346.567948 196.707744 C 347.064416 195.971934 347.694363 195.709487 348.462939 195.921185 C 349.242596 196.1293 349.890751 196.543952 350.403038 197.159208 C 350.925623 197.77603 351.042328 198.394352 350.738489 199.006675 C 350.183178 200.060166 349.440866 201.511946 348.507186 203.356083 C 347.59052 205.19227 346.486043 207.189554 345.192972 209.353083 C 343.902249 211.501165 342.392344 213.531626 340.664037 215.439318 C 338.951178 217.349359 336.99538 218.916901 334.800227 220.153028 C 332.622086 221.381205 330.210045 221.999581 327.565668 221.997857 Z M 347.046362 222.178509 C 345.87663 222.179757 345.289614 220.947294 345.290463 218.481903 C 345.292453 216.216877 345.875181 214.082305 347.048946 212.079753 C 348.221929 210.082349 349.722226 208.21901 351.554989 206.490516 C 353.403199 204.764372 355.358545 203.165151 357.41588 201.692071 C 359.489444 200.216191 361.446383 198.849013 363.276399 197.588972 C 365.127794 196.326914 366.637236 195.165636 367.808307 194.116219 C 368.980161 193.061653 369.568172 192.139571 369.567973 191.344042 C 369.567335 189.615974 368.123266 188.753666 365.241697 188.752751 C 362.217969 188.751292 359.552531 189.615619 357.235086 191.344165 C 354.93902 193.070695 352.774682 195.628559 350.743638 199.007458 L 346.573097 196.708527 C 348.182111 194.060951 349.535445 191.258596 350.633101 188.301462 C 351.746987 185.341527 352.764433 181.80323 353.696519 177.682986 C 354.240284 175.458198 355.252064 174.347682 356.74294 174.347854 C 357.717455 174.348531 358.407559 174.521956 358.814036 174.86298 C 359.219731 175.209154 359.496816 175.604257 359.646858 176.037993 C 359.799248 176.456281 359.993164 176.844006 360.236103 177.186504 C 360.490906 177.520269 360.98736 177.68532 361.725466 177.681657 C 362.45764 177.68236 363.149164 177.534641 363.795673 177.232566 C 364.444532 176.915044 365.239132 176.609148 366.185406 176.310511 C 367.15026 175.993626 368.396538 175.835435 369.92939 175.836722 C 372.15244 175.837597 374.046754 176.025554 375.607183 176.399808 C 377.185408 176.760964 378.787124 176.967646 380.410762 177.030152 C 382.045483 177.089075 384.039355 176.691595 386.382082 175.836147 C 386.862492 175.656325 387.306552 175.75019 387.712698 176.128042 C 388.121192 176.490445 388.25657 176.916683 388.118047 177.411903 C 387.636179 180.615453 386.622568 183.40098 385.076432 185.773634 C 383.542161 188.137555 381.776815 190.150247 379.779612 191.816858 C 377.778826 193.472387 375.839802 194.894971 373.965342 196.10084 C 372.086516 197.300777 370.527361 198.338595 369.298959 199.210711 C 368.062608 200.065815 367.446715 200.894097 367.446914 201.689626 C 367.450776 203.223261 369.636747 203.987656 374.009192 203.988743 C 376.89591 203.990441 379.614312 203.297482 382.168764 201.915799 C 384.723216 200.534116 386.704853 198.796651 388.11804 196.709337 C 389.10986 195.279693 390.018258 194.606522 390.844802 194.679526 C 391.689142 194.739431 392.272827 195.196961 392.606154 196.053683 C 392.94978 196.911971 392.847355 197.897355 392.28858 199.008269 C 391.734955 200.119966 390.95985 201.614174 389.968415 203.491673 C 388.992428 205.371522 387.787768 207.369377 386.358802 209.491169 C 384.946066 211.610161 383.302282 213.620265 381.425885 215.531778 C 379.560569 217.439709 377.443581 218.993277 375.068991 220.19685 C 372.6944 221.400423 370.095424 222.00091 367.266912 221.997526 C 365.164642 221.999212 363.586655 221.775066 362.532952 221.325087 C 361.497828 220.85686 360.68433 220.31697 360.098389 219.701051 C 359.512448 219.085131 358.914763 218.546449 358.295817 218.078288 C 357.682021 217.610911 356.821543 217.379969 355.726249 217.376732 C 354.177166 217.378245 353.038357 217.626532 352.298738 218.125176 C 351.565052 218.619455 350.990657 219.174832 350.585852 219.792875 C 350.197278 220.408118 349.770191 220.964823 349.305375 221.45784 C 348.836976 221.939776 348.084232 222.178283 347.046362 222.178509 Z M 347.046362 222.178509 " stroke="#f0dfc8" stroke-width="6.925335" stroke-opacity="1" stroke-miterlimit="4"/><g fill="#233667" fill-opacity="1"><g transform="translate(106.461575, 150.511944)"><g><path d="M 11.328125 1.21875 C 8.171875 1.695312 5.445312 1.535156 3.15625 0.734375 C 0.863281 -0.0546875 -0.960938 -1.328125 -2.328125 -3.078125 C -3.691406 -4.828125 -4.550781 -6.867188 -4.90625 -9.203125 C -5.175781 -11.035156 -5.082031 -12.8125 -4.625 -14.53125 C -4.164062 -16.25 -3.382812 -17.726562 -2.28125 -18.96875 C -1.1875 -20.21875 0.203125 -20.972656 1.890625 -21.234375 C 2.578125 -21.335938 2.960938 -21.117188 3.046875 -20.578125 C 3.296875 -18.878906 4.21875 -17.601562 5.8125 -16.75 C 7.414062 -15.90625 9.269531 -15.640625 11.375 -15.953125 C 12.875 -16.179688 14.394531 -16.820312 15.9375 -17.875 C 17.488281 -18.925781 18.90625 -20.4375 20.1875 -22.40625 C 21.476562 -24.375 22.441406 -26.804688 23.078125 -29.703125 C 23.691406 -32.453125 24.332031 -35.226562 25 -38.03125 C 25.675781 -40.84375 26.25 -43.15625 26.71875 -44.96875 C 24.5 -45.101562 22.5 -44.789062 20.71875 -44.03125 C 18.945312 -43.269531 17.597656 -42.160156 16.671875 -40.703125 C 15.753906 -39.253906 15.445312 -37.523438 15.75 -35.515625 C 15.894531 -34.515625 16.269531 -33.722656 16.875 -33.140625 C 17.488281 -32.554688 18.160156 -32.320312 18.890625 -32.4375 C 19.328125 -31.75 19.484375 -30.867188 19.359375 -29.796875 C 19.234375 -28.734375 18.84375 -27.671875 18.1875 -26.609375 C 17.539062 -25.554688 16.632812 -24.613281 15.46875 -23.78125 C 14.3125 -22.945312 12.90625 -22.40625 11.25 -22.15625 C 9.394531 -21.875 7.757812 -22.054688 6.34375 -22.703125 C 4.9375 -23.359375 3.8125 -24.3125 2.96875 -25.5625 C 2.125 -26.8125 1.585938 -28.210938 1.359375 -29.765625 C 0.910156 -32.722656 1.085938 -35.628906 1.890625 -38.484375 C 2.691406 -41.347656 4.066406 -43.960938 6.015625 -46.328125 C 7.960938 -48.703125 10.410156 -50.707031 13.359375 -52.34375 C 16.304688 -53.988281 19.695312 -55.101562 23.53125 -55.6875 C 28.28125 -56.414062 31.410156 -55.804688 32.921875 -53.859375 C 34.429688 -51.910156 34.804688 -49.015625 34.046875 -45.171875 C 33.816406 -43.878906 33.535156 -42.316406 33.203125 -40.484375 C 32.867188 -38.660156 32.507812 -36.707031 32.125 -34.625 C 31.75 -32.539062 31.375 -30.488281 31 -28.46875 C 30.632812 -26.445312 30.316406 -24.644531 30.046875 -23.0625 C 28.671875 -15.238281 26.472656 -9.425781 23.453125 -5.625 C 20.429688 -1.832031 16.390625 0.445312 11.328125 1.21875 Z M 11.328125 1.21875 "/></g></g></g><g fill="#233667" fill-opacity="1"><g transform="translate(141.991847, 145.109156)"><g><path d="M 12.875 -1.953125 C 10.132812 -1.535156 7.789062 -1.804688 5.84375 -2.765625 C 3.894531 -3.734375 2.34375 -5.171875 1.1875 -7.078125 C 0.0390625 -8.984375 -0.707031 -11.15625 -1.0625 -13.59375 C -1.414062 -16.039062 -1.363281 -18.546875 -0.90625 -21.109375 C -0.457031 -23.679688 0.382812 -26.101562 1.625 -28.375 C 2.875 -30.644531 4.507812 -32.5625 6.53125 -34.125 C 8.5625 -35.695312 10.972656 -36.695312 13.765625 -37.125 C 15.910156 -37.445312 17.710938 -37.3125 19.171875 -36.71875 C 20.640625 -36.125 21.796875 -35.210938 22.640625 -33.984375 C 23.484375 -32.753906 24.019531 -31.390625 24.25 -29.890625 C 24.5 -28.242188 24.289062 -26.53125 23.625 -24.75 C 22.957031 -22.96875 21.882812 -21.414062 20.40625 -20.09375 C 18.925781 -18.769531 17.066406 -17.941406 14.828125 -17.609375 C 13.867188 -17.460938 12.921875 -17.382812 11.984375 -17.375 C 11.054688 -17.375 10.164062 -17.546875 9.3125 -17.890625 C 9.070312 -17.984375 8.820312 -17.953125 8.5625 -17.796875 C 8.3125 -17.640625 8.21875 -17.332031 8.28125 -16.875 C 8.46875 -15.6875 9.300781 -14.890625 10.78125 -14.484375 C 12.269531 -14.078125 14 -14.023438 15.96875 -14.328125 C 18.289062 -14.679688 20.601562 -15.640625 22.90625 -17.203125 C 25.21875 -18.773438 26.96875 -20.863281 28.15625 -23.46875 C 28.4375 -24.082031 28.882812 -24.351562 29.5 -24.28125 C 30.113281 -24.207031 30.648438 -23.972656 31.109375 -23.578125 C 31.578125 -23.179688 31.707031 -22.734375 31.5 -22.234375 C 29.332031 -16.210938 26.675781 -11.476562 23.53125 -8.03125 C 20.394531 -4.582031 16.84375 -2.554688 12.875 -1.953125 Z M 12.28125 -22.453125 C 13.59375 -22.660156 14.5625 -23.242188 15.1875 -24.203125 C 15.820312 -25.160156 16.078125 -26.070312 15.953125 -26.9375 C 15.828125 -27.726562 15.457031 -28.351562 14.84375 -28.8125 C 14.238281 -29.269531 13.410156 -29.421875 12.359375 -29.265625 C 11.023438 -29.066406 10.035156 -28.492188 9.390625 -27.546875 C 8.742188 -26.609375 8.488281 -25.6875 8.625 -24.78125 C 8.726562 -24.050781 9.085938 -23.4375 9.703125 -22.9375 C 10.316406 -22.445312 11.175781 -22.285156 12.28125 -22.453125 Z M 12.28125 -22.453125 "/></g></g></g><g fill="#233667" fill-opacity="1"><g transform="translate(171.429251, 140.632859)"><g><path d="M 25.28125 -23.03125 C 25.5625 -23.644531 26 -23.914062 26.59375 -23.84375 C 27.195312 -23.769531 27.722656 -23.53125 28.171875 -23.125 C 28.628906 -22.726562 28.78125 -22.285156 28.625 -21.796875 C 28.375 -20.960938 28 -19.796875 27.5 -18.296875 C 27.007812 -16.796875 26.347656 -15.175781 25.515625 -13.4375 C 24.679688 -11.707031 23.609375 -10.015625 22.296875 -8.359375 C 20.984375 -6.710938 19.398438 -5.289062 17.546875 -4.09375 C 15.691406 -2.90625 13.488281 -2.117188 10.9375 -1.734375 C 7.925781 -1.273438 5.441406 -1.550781 3.484375 -2.5625 C 1.535156 -3.570312 0.0976562 -5.007812 -0.828125 -6.875 C -1.765625 -8.75 -2.257812 -10.773438 -2.3125 -12.953125 C -2.375 -15.140625 -2.03125 -17.148438 -1.28125 -18.984375 L -1.0625 -19.453125 C -0.09375 -21.285156 0.847656 -23.257812 1.765625 -25.375 C 2.691406 -27.5 3.660156 -29.515625 4.671875 -31.421875 C 5.691406 -33.335938 6.800781 -34.957031 8 -36.28125 C 9.195312 -37.613281 10.523438 -38.390625 11.984375 -38.609375 C 14.128906 -38.929688 15.789062 -38.664062 16.96875 -37.8125 C 18.15625 -36.96875 18.8125 -35.988281 18.9375 -34.875 C 19.019531 -34.332031 18.847656 -33.835938 18.421875 -33.390625 C 17.992188 -32.953125 17.472656 -32.535156 16.859375 -32.140625 C 16.242188 -31.753906 15.710938 -31.304688 15.265625 -30.796875 C 14.828125 -30.296875 14.660156 -29.703125 14.765625 -29.015625 C 14.835938 -28.597656 15.285156 -27.820312 16.109375 -26.6875 C 16.929688 -25.550781 17.820312 -24.269531 18.78125 -22.84375 C 19.75 -21.425781 20.484375 -20.035156 20.984375 -18.671875 C 22.023438 -18.878906 22.867188 -19.378906 23.515625 -20.171875 C 24.160156 -20.972656 24.75 -21.925781 25.28125 -23.03125 Z M 6.34375 -15.46875 C 7.84375 -15.695312 8.925781 -16.351562 9.59375 -17.4375 C 10.269531 -18.519531 10.5 -19.769531 10.28125 -21.1875 C 10.15625 -22.007812 9.90625 -22.832031 9.53125 -23.65625 C 9.15625 -24.476562 8.644531 -25.3125 8 -26.15625 C 7.414062 -26.988281 6.875 -26.90625 6.375 -25.90625 C 5.6875 -24.488281 4.953125 -23.054688 4.171875 -21.609375 C 3.390625 -20.160156 2.6875 -18.875 2.0625 -17.75 C 2.1875 -16.925781 2.644531 -16.296875 3.4375 -15.859375 C 4.226562 -15.421875 5.195312 -15.289062 6.34375 -15.46875 Z M 6.34375 -15.46875 "/></g></g></g><g fill="#233667" fill-opacity="1"><g transform="translate(197.922914, 136.604191)"><g><path d="M 25.28125 -23.03125 C 25.5625 -23.644531 26 -23.914062 26.59375 -23.84375 C 27.195312 -23.769531 27.722656 -23.53125 28.171875 -23.125 C 28.628906 -22.726562 28.78125 -22.285156 28.625 -21.796875 C 28.375 -20.960938 28 -19.796875 27.5 -18.296875 C 27.007812 -16.796875 26.347656 -15.175781 25.515625 -13.4375 C 24.679688 -11.707031 23.609375 -10.015625 22.296875 -8.359375 C 20.984375 -6.710938 19.398438 -5.289062 17.546875 -4.09375 C 15.691406 -2.90625 13.488281 -2.117188 10.9375 -1.734375 C 7.925781 -1.273438 5.441406 -1.550781 3.484375 -2.5625 C 1.535156 -3.570312 0.0976562 -5.007812 -0.828125 -6.875 C -1.765625 -8.75 -2.257812 -10.773438 -2.3125 -12.953125 C -2.375 -15.140625 -2.03125 -17.148438 -1.28125 -18.984375 L -1.0625 -19.453125 C -0.09375 -21.285156 0.847656 -23.257812 1.765625 -25.375 C 2.691406 -27.5 3.660156 -29.515625 4.671875 -31.421875 C 5.691406 -33.335938 6.800781 -34.957031 8 -36.28125 C 9.195312 -37.613281 10.523438 -38.390625 11.984375 -38.609375 C 14.128906 -38.929688 15.789062 -38.664062 16.96875 -37.8125 C 18.15625 -36.96875 18.8125 -35.988281 18.9375 -34.875 C 19.019531 -34.332031 18.847656 -33.835938 18.421875 -33.390625 C 17.992188 -32.953125 17.472656 -32.535156 16.859375 -32.140625 C 16.242188 -31.753906 15.710938 -31.304688 15.265625 -30.796875 C 14.828125 -30.296875 14.660156 -29.703125 14.765625 -29.015625 C 14.835938 -28.597656 15.285156 -27.820312 16.109375 -26.6875 C 16.929688 -25.550781 17.820312 -24.269531 18.78125 -22.84375 C 19.75 -21.425781 20.484375 -20.035156 20.984375 -18.671875 C 22.023438 -18.878906 22.867188 -19.378906 23.515625 -20.171875 C 24.160156 -20.972656 24.75 -21.925781 25.28125 -23.03125 Z M 6.34375 -15.46875 C 7.84375 -15.695312 8.925781 -16.351562 9.59375 -17.4375 C 10.269531 -18.519531 10.5 -19.769531 10.28125 -21.1875 C 10.15625 -22.007812 9.90625 -22.832031 9.53125 -23.65625 C 9.15625 -24.476562 8.644531 -25.3125 8 -26.15625 C 7.414062 -26.988281 6.875 -26.90625 6.375 -25.90625 C 5.6875 -24.488281 4.953125 -23.054688 4.171875 -21.609375 C 3.390625 -20.160156 2.6875 -18.875 2.0625 -17.75 C 2.1875 -16.925781 2.644531 -16.296875 3.4375 -15.859375 C 4.226562 -15.421875 5.195312 -15.289062 6.34375 -15.46875 Z M 6.34375 -15.46875 "/></g></g></g><g fill="#233667" fill-opacity="1"><g transform="translate(224.416577, 132.575523)"><g><path d="M 12.875 -1.953125 C 10.132812 -1.535156 7.789062 -1.804688 5.84375 -2.765625 C 3.894531 -3.734375 2.34375 -5.171875 1.1875 -7.078125 C 0.0390625 -8.984375 -0.707031 -11.15625 -1.0625 -13.59375 C -1.414062 -16.039062 -1.363281 -18.546875 -0.90625 -21.109375 C -0.457031 -23.679688 0.382812 -26.101562 1.625 -28.375 C 2.875 -30.644531 4.507812 -32.5625 6.53125 -34.125 C 8.5625 -35.695312 10.972656 -36.695312 13.765625 -37.125 C 15.910156 -37.445312 17.710938 -37.3125 19.171875 -36.71875 C 20.640625 -36.125 21.796875 -35.210938 22.640625 -33.984375 C 23.484375 -32.753906 24.019531 -31.390625 24.25 -29.890625 C 24.5 -28.242188 24.289062 -26.53125 23.625 -24.75 C 22.957031 -22.96875 21.882812 -21.414062 20.40625 -20.09375 C 18.925781 -18.769531 17.066406 -17.941406 14.828125 -17.609375 C 13.867188 -17.460938 12.921875 -17.382812 11.984375 -17.375 C 11.054688 -17.375 10.164062 -17.546875 9.3125 -17.890625 C 9.070312 -17.984375 8.820312 -17.953125 8.5625 -17.796875 C 8.3125 -17.640625 8.21875 -17.332031 8.28125 -16.875 C 8.46875 -15.6875 9.300781 -14.890625 10.78125 -14.484375 C 12.269531 -14.078125 14 -14.023438 15.96875 -14.328125 C 18.289062 -14.679688 20.601562 -15.640625 22.90625 -17.203125 C 25.21875 -18.773438 26.96875 -20.863281 28.15625 -23.46875 C 28.4375 -24.082031 28.882812 -24.351562 29.5 -24.28125 C 30.113281 -24.207031 30.648438 -23.972656 31.109375 -23.578125 C 31.578125 -23.179688 31.707031 -22.734375 31.5 -22.234375 C 29.332031 -16.210938 26.675781 -11.476562 23.53125 -8.03125 C 20.394531 -4.582031 16.84375 -2.554688 12.875 -1.953125 Z M 12.28125 -22.453125 C 13.59375 -22.660156 14.5625 -23.242188 15.1875 -24.203125 C 15.820312 -25.160156 16.078125 -26.070312 15.953125 -26.9375 C 15.828125 -27.726562 15.457031 -28.351562 14.84375 -28.8125 C 14.238281 -29.269531 13.410156 -29.421875 12.359375 -29.265625 C 11.023438 -29.066406 10.035156 -28.492188 9.390625 -27.546875 C 8.742188 -26.609375 8.488281 -25.6875 8.625 -24.78125 C 8.726562 -24.050781 9.085938 -23.4375 9.703125 -22.9375 C 10.316406 -22.445312 11.175781 -22.285156 12.28125 -22.453125 Z M 12.28125 -22.453125 "/></g></g></g><g fill="#233667" fill-opacity="1"><g transform="translate(56.945292, 282.455376)"><g><path d="M 15.984375 0.515625 C 13.015625 0.960938 10.238281 0.765625 7.65625 -0.078125 C 5.082031 -0.921875 2.914062 -2.429688 1.15625 -4.609375 C -0.601562 -6.796875 -1.753906 -9.644531 -2.296875 -13.15625 C -2.703125 -15.851562 -2.675781 -18.171875 -2.21875 -20.109375 C -1.757812 -22.046875 -1.046875 -23.660156 -0.078125 -24.953125 C 0.890625 -26.253906 1.960938 -27.238281 3.140625 -27.90625 C 4.316406 -28.582031 5.410156 -28.992188 6.421875 -29.140625 C 7.285156 -29.273438 7.992188 -29.21875 8.546875 -28.96875 C 9.097656 -28.726562 9.414062 -28.359375 9.5 -27.859375 C 9.570312 -27.359375 9.441406 -26.890625 9.109375 -26.453125 C 8.773438 -26.023438 8.445312 -25.492188 8.125 -24.859375 C 7.8125 -24.234375 7.75 -23.28125 7.9375 -22 C 8.21875 -20.175781 8.941406 -18.789062 10.109375 -17.84375 C 11.285156 -16.90625 12.757812 -16.570312 14.53125 -16.84375 C 16.175781 -17.09375 17.441406 -17.820312 18.328125 -19.03125 C 19.222656 -20.238281 19.539062 -21.6875 19.28125 -23.375 C 19.082031 -24.707031 18.523438 -25.976562 17.609375 -27.1875 C 16.691406 -28.40625 15.675781 -29.691406 14.5625 -31.046875 C 13.457031 -32.398438 12.421875 -33.875 11.453125 -35.46875 C 10.484375 -37.070312 9.84375 -38.90625 9.53125 -40.96875 C 9.21875 -43.0625 9.382812 -45.113281 10.03125 -47.125 C 10.6875 -49.132812 11.898438 -50.882812 13.671875 -52.375 C 15.453125 -53.863281 17.851562 -54.835938 20.875 -55.296875 C 23.5625 -55.703125 25.785156 -55.5625 27.546875 -54.875 C 29.316406 -54.1875 30.679688 -53.15625 31.640625 -51.78125 C 32.597656 -50.40625 33.203125 -48.894531 33.453125 -47.25 C 33.765625 -45.195312 33.503906 -43.195312 32.671875 -41.25 C 31.847656 -39.300781 30.570312 -37.707031 28.84375 -36.46875 C 28.632812 -36.050781 28.210938 -35.914062 27.578125 -36.0625 C 26.941406 -36.207031 26.390625 -36.507812 25.921875 -36.96875 C 25.460938 -37.4375 25.359375 -37.898438 25.609375 -38.359375 C 25.867188 -38.816406 26.035156 -39.410156 26.109375 -40.140625 C 26.191406 -40.878906 26.117188 -41.617188 25.890625 -42.359375 C 25.660156 -43.097656 25.265625 -43.679688 24.703125 -44.109375 C 24.148438 -44.535156 23.394531 -44.675781 22.4375 -44.53125 C 21.289062 -44.351562 20.347656 -43.832031 19.609375 -42.96875 C 18.878906 -42.113281 18.648438 -40.816406 18.921875 -39.078125 C 19.109375 -37.578125 19.738281 -36.113281 20.8125 -34.6875 C 21.894531 -33.269531 23.132812 -31.8125 24.53125 -30.3125 C 25.925781 -28.820312 27.195312 -27.207031 28.34375 -25.46875 C 29.5 -23.726562 30.238281 -21.78125 30.5625 -19.625 C 31.082031 -16.25 30.800781 -13.125 29.71875 -10.25 C 28.632812 -7.382812 26.914062 -5.003906 24.5625 -3.109375 C 22.21875 -1.210938 19.359375 -0.00390625 15.984375 0.515625 Z M 15.984375 0.515625 "/></g></g></g><g fill="#233667" fill-opacity="1"><g transform="translate(92.407102, 277.062998)"><g><path d="M 5.828125 -0.890625 C 3.398438 -0.515625 1.609375 -0.925781 0.453125 -2.125 C -0.703125 -3.320312 -1.4375 -4.925781 -1.75 -6.9375 C -2.007812 -8.675781 -2.078125 -10.601562 -1.953125 -12.71875 C -1.835938 -14.84375 -1.59375 -16.9375 -1.21875 -19 C 0.09375 -26.019531 1.21875 -31.910156 2.15625 -36.671875 C 3.09375 -41.441406 4.140625 -45.09375 5.296875 -47.625 C 6.453125 -50.164062 7.941406 -51.578125 9.765625 -51.859375 C 11.179688 -52.078125 12.148438 -51.671875 12.671875 -50.640625 C 13.203125 -49.617188 13.109375 -47.960938 12.390625 -45.671875 C 11.097656 -41.597656 10.019531 -37.847656 9.15625 -34.421875 C 8.300781 -30.992188 7.707031 -27.785156 7.375 -24.796875 C 7.195312 -23.410156 7.117188 -22.101562 7.140625 -20.875 C 7.171875 -19.644531 7.472656 -18.6875 8.046875 -18 C 8.617188 -17.3125 9.585938 -17.070312 10.953125 -17.28125 C 12.140625 -17.46875 13.128906 -17.9375 13.921875 -18.6875 C 14.722656 -19.4375 15.40625 -20.410156 15.96875 -21.609375 C 16.25 -22.234375 16.695312 -22.507812 17.3125 -22.4375 C 17.925781 -22.363281 18.460938 -22.125 18.921875 -21.71875 C 19.390625 -21.320312 19.519531 -20.875 19.3125 -20.375 C 18.96875 -19.582031 18.582031 -18.4375 18.15625 -16.9375 C 17.726562 -15.445312 17.1875 -13.847656 16.53125 -12.140625 C 15.882812 -10.429688 15.078125 -8.765625 14.109375 -7.140625 C 13.140625 -5.523438 11.984375 -4.148438 10.640625 -3.015625 C 9.296875 -1.878906 7.691406 -1.171875 5.828125 -0.890625 Z M 5.828125 -0.890625 "/></g></g></g><g fill="#233667" fill-opacity="1"><g transform="translate(109.658796, 274.439679)"><g><path d="M 31.3125 -23.953125 C 31.519531 -24.398438 31.925781 -24.613281 32.53125 -24.59375 C 33.144531 -24.570312 33.695312 -24.398438 34.1875 -24.078125 C 34.6875 -23.765625 34.84375 -23.304688 34.65625 -22.703125 C 34.21875 -21.242188 33.597656 -19.703125 32.796875 -18.078125 C 32.003906 -16.460938 30.914062 -15.046875 29.53125 -13.828125 C 28.144531 -12.617188 26.328125 -11.84375 24.078125 -11.5 L 23.265625 -11.375 C 21.929688 -8.789062 20.195312 -6.625 18.0625 -4.875 C 15.925781 -3.132812 13.582031 -2.066406 11.03125 -1.671875 C 7.96875 -1.210938 5.273438 -1.851562 2.953125 -3.59375 C 0.640625 -5.34375 -0.785156 -8.003906 -1.328125 -11.578125 C -1.710938 -14.128906 -1.640625 -16.804688 -1.109375 -19.609375 C -0.585938 -22.421875 0.34375 -25.085938 1.6875 -27.609375 C 3.03125 -30.128906 4.738281 -32.242188 6.8125 -33.953125 C 8.882812 -35.671875 11.289062 -36.738281 14.03125 -37.15625 C 15.90625 -37.445312 17.648438 -37.328125 19.265625 -36.796875 C 20.890625 -36.273438 22.273438 -35.210938 23.421875 -33.609375 C 24.566406 -32.003906 25.359375 -29.765625 25.796875 -26.890625 C 26.171875 -24.472656 26.191406 -22.078125 25.859375 -19.703125 L 26.34375 -19.765625 C 27.351562 -19.921875 28.273438 -20.332031 29.109375 -21 C 29.941406 -21.664062 30.675781 -22.648438 31.3125 -23.953125 Z M 12.765625 -16.4375 C 13.910156 -16.613281 14.863281 -17.109375 15.625 -17.921875 C 16.382812 -18.734375 16.941406 -19.671875 17.296875 -20.734375 C 17.648438 -21.796875 17.753906 -22.804688 17.609375 -23.765625 C 17.460938 -24.773438 17.035156 -25.585938 16.328125 -26.203125 C 15.628906 -26.816406 14.617188 -27.019531 13.296875 -26.8125 C 12.203125 -26.644531 11.28125 -26.179688 10.53125 -25.421875 C 9.789062 -24.660156 9.253906 -23.75 8.921875 -22.6875 C 8.585938 -21.632812 8.5 -20.609375 8.65625 -19.609375 C 8.8125 -18.597656 9.210938 -17.769531 9.859375 -17.125 C 10.515625 -16.476562 11.484375 -16.25 12.765625 -16.4375 Z M 12.765625 -16.4375 "/></g></g></g><g fill="#233667" fill-opacity="1"><g transform="translate(142.245326, 269.484521)"><g><path d="M 4.3125 -0.65625 C 2.71875 -0.414062 1.414062 -0.707031 0.40625 -1.53125 C -0.601562 -2.351562 -1.21875 -3.472656 -1.4375 -4.890625 C -1.675781 -6.492188 -1.84375 -8.507812 -1.9375 -10.9375 C -2.03125 -13.375 -1.8125 -16.054688 -1.28125 -18.984375 C -0.75 -21.960938 -0.207031 -24.6875 0.34375 -27.15625 C 0.90625 -29.625 1.546875 -31.632812 2.265625 -33.1875 C 2.992188 -34.75 3.816406 -35.601562 4.734375 -35.75 C 5.503906 -35.863281 6.085938 -35.679688 6.484375 -35.203125 C 6.878906 -34.722656 7.128906 -34.144531 7.234375 -33.46875 C 7.410156 -32.320312 7.875 -31.59375 8.625 -31.28125 C 9.375 -30.976562 10.207031 -31.457031 11.125 -32.71875 C 12.21875 -34.144531 13.394531 -35.304688 14.65625 -36.203125 C 15.925781 -37.097656 17.316406 -37.660156 18.828125 -37.890625 C 20.515625 -38.148438 21.910156 -37.941406 23.015625 -37.265625 C 24.117188 -36.585938 24.925781 -35.660156 25.4375 -34.484375 C 25.601562 -34.023438 25.828125 -33.785156 26.109375 -33.765625 C 26.390625 -33.742188 26.738281 -34.066406 27.15625 -34.734375 C 28.25 -36.398438 29.46875 -37.71875 30.8125 -38.6875 C 32.164062 -39.664062 33.664062 -40.28125 35.3125 -40.53125 C 38 -40.945312 39.984375 -40.617188 41.265625 -39.546875 C 42.546875 -38.484375 43.320312 -37.082031 43.59375 -35.34375 C 43.769531 -34.164062 43.75 -33.054688 43.53125 -32.015625 C 43.320312 -30.972656 43.101562 -29.957031 42.875 -28.96875 C 42.644531 -27.976562 42.617188 -26.910156 42.796875 -25.765625 C 43.148438 -23.390625 44.445312 -22.375 46.6875 -22.71875 C 47.738281 -22.875 48.566406 -23.335938 49.171875 -24.109375 C 49.785156 -24.878906 50.351562 -25.816406 50.875 -26.921875 C 51.164062 -27.535156 51.617188 -27.804688 52.234375 -27.734375 C 52.859375 -27.671875 53.394531 -27.4375 53.84375 -27.03125 C 54.300781 -26.632812 54.429688 -26.1875 54.234375 -25.6875 C 53.890625 -24.882812 53.5 -23.738281 53.0625 -22.25 C 52.632812 -20.757812 52.09375 -19.160156 51.4375 -17.453125 C 50.789062 -15.742188 49.984375 -14.078125 49.015625 -12.453125 C 48.054688 -10.835938 46.90625 -9.460938 45.5625 -8.328125 C 44.21875 -7.191406 42.609375 -6.476562 40.734375 -6.1875 C 38.535156 -5.851562 36.894531 -6.335938 35.8125 -7.640625 C 34.726562 -8.953125 34.035156 -10.59375 33.734375 -12.5625 C 33.472656 -14.289062 33.460938 -15.976562 33.703125 -17.625 C 33.941406 -19.269531 34.203125 -20.78125 34.484375 -22.15625 C 34.765625 -23.53125 34.835938 -24.671875 34.703125 -25.578125 C 34.578125 -26.367188 34.242188 -26.929688 33.703125 -27.265625 C 33.171875 -27.597656 32.519531 -27.707031 31.75 -27.59375 C 30.425781 -27.382812 29.285156 -26.648438 28.328125 -25.390625 C 27.367188 -24.128906 26.671875 -22.625 26.234375 -20.875 C 25.804688 -19.132812 25.726562 -17.394531 26 -15.65625 C 26.144531 -14.65625 26.335938 -13.890625 26.578125 -13.359375 C 26.816406 -12.835938 27.015625 -12.078125 27.171875 -11.078125 C 27.316406 -10.117188 27.316406 -9.097656 27.171875 -8.015625 C 27.035156 -6.941406 26.585938 -5.988281 25.828125 -5.15625 C 25.078125 -4.320312 23.835938 -3.769531 22.109375 -3.5 C 20.546875 -3.269531 19.171875 -3.503906 17.984375 -4.203125 C 16.804688 -4.910156 16.050781 -6.382812 15.71875 -8.625 C 15.445312 -10.363281 15.472656 -12.070312 15.796875 -13.75 C 16.128906 -15.4375 16.472656 -17.03125 16.828125 -18.53125 C 17.179688 -20.03125 17.273438 -21.351562 17.109375 -22.5 C 16.972656 -23.40625 16.628906 -24.039062 16.078125 -24.40625 C 15.535156 -24.769531 14.875 -24.894531 14.09375 -24.78125 C 12.78125 -24.582031 11.644531 -23.832031 10.6875 -22.53125 C 9.726562 -21.238281 9.046875 -19.648438 8.640625 -17.765625 C 8.234375 -15.890625 8.1875 -13.921875 8.5 -11.859375 L 8.96875 -8.796875 C 9.144531 -7.648438 9.175781 -6.492188 9.0625 -5.328125 C 8.957031 -4.171875 8.550781 -3.164062 7.84375 -2.3125 C 7.132812 -1.457031 5.957031 -0.90625 4.3125 -0.65625 Z M 4.3125 -0.65625 "/></g></g></g><g fill="#233667" fill-opacity="1"><g transform="translate(194.411152, 261.552104)"><g><path d="M 31.3125 -23.953125 C 31.519531 -24.398438 31.925781 -24.613281 32.53125 -24.59375 C 33.144531 -24.570312 33.695312 -24.398438 34.1875 -24.078125 C 34.6875 -23.765625 34.84375 -23.304688 34.65625 -22.703125 C 34.21875 -21.242188 33.597656 -19.703125 32.796875 -18.078125 C 32.003906 -16.460938 30.914062 -15.046875 29.53125 -13.828125 C 28.144531 -12.617188 26.328125 -11.84375 24.078125 -11.5 L 23.265625 -11.375 C 21.929688 -8.789062 20.195312 -6.625 18.0625 -4.875 C 15.925781 -3.132812 13.582031 -2.066406 11.03125 -1.671875 C 7.96875 -1.210938 5.273438 -1.851562 2.953125 -3.59375 C 0.640625 -5.34375 -0.785156 -8.003906 -1.328125 -11.578125 C -1.710938 -14.128906 -1.640625 -16.804688 -1.109375 -19.609375 C -0.585938 -22.421875 0.34375 -25.085938 1.6875 -27.609375 C 3.03125 -30.128906 4.738281 -32.242188 6.8125 -33.953125 C 8.882812 -35.671875 11.289062 -36.738281 14.03125 -37.15625 C 15.90625 -37.445312 17.648438 -37.328125 19.265625 -36.796875 C 20.890625 -36.273438 22.273438 -35.210938 23.421875 -33.609375 C 24.566406 -32.003906 25.359375 -29.765625 25.796875 -26.890625 C 26.171875 -24.472656 26.191406 -22.078125 25.859375 -19.703125 L 26.34375 -19.765625 C 27.351562 -19.921875 28.273438 -20.332031 29.109375 -21 C 29.941406 -21.664062 30.675781 -22.648438 31.3125 -23.953125 Z M 12.765625 -16.4375 C 13.910156 -16.613281 14.863281 -17.109375 15.625 -17.921875 C 16.382812 -18.734375 16.941406 -19.671875 17.296875 -20.734375 C 17.648438 -21.796875 17.753906 -22.804688 17.609375 -23.765625 C 17.460938 -24.773438 17.035156 -25.585938 16.328125 -26.203125 C 15.628906 -26.816406 14.617188 -27.019531 13.296875 -26.8125 C 12.203125 -26.644531 11.28125 -26.179688 10.53125 -25.421875 C 9.789062 -24.660156 9.253906 -23.75 8.921875 -22.6875 C 8.585938 -21.632812 8.5 -20.609375 8.65625 -19.609375 C 8.8125 -18.597656 9.210938 -17.769531 9.859375 -17.125 C 10.515625 -16.476562 11.484375 -16.25 12.765625 -16.4375 Z M 12.765625 -16.4375 "/></g></g></g><g fill="#233667" fill-opacity="1"><g transform="translate(226.997682, 256.596946)"><g><path d="M 45 -26.03125 C 45.207031 -26.488281 45.617188 -26.703125 46.234375 -26.671875 C 46.847656 -26.648438 47.398438 -26.476562 47.890625 -26.15625 C 48.378906 -25.84375 48.53125 -25.390625 48.34375 -24.796875 C 47.90625 -23.328125 47.285156 -21.78125 46.484375 -20.15625 C 45.679688 -18.539062 44.585938 -17.125 43.203125 -15.90625 C 41.828125 -14.695312 40.019531 -13.921875 37.78125 -13.578125 C 37.050781 -13.460938 36.320312 -13.492188 35.59375 -13.671875 C 34.257812 -11.140625 32.757812 -8.960938 31.09375 -7.140625 C 29.4375 -5.328125 27.601562 -4.265625 25.59375 -3.953125 C 24.625 -3.804688 23.671875 -4 22.734375 -4.53125 C 21.796875 -5.070312 20.960938 -6.175781 20.234375 -7.84375 C 19.515625 -9.507812 19.050781 -11.957031 18.84375 -15.1875 C 18.113281 -11.957031 17.164062 -9.351562 16 -7.375 C 14.832031 -5.394531 13.582031 -3.941406 12.25 -3.015625 C 10.914062 -2.085938 9.613281 -1.523438 8.34375 -1.328125 C 6.507812 -1.054688 4.921875 -1.398438 3.578125 -2.359375 C 2.242188 -3.328125 1.175781 -4.679688 0.375 -6.421875 C -0.414062 -8.171875 -0.96875 -10.15625 -1.28125 -12.375 C -1.59375 -14.59375 -1.640625 -16.789062 -1.421875 -18.96875 C -1.285156 -20.8125 -1.023438 -22.695312 -0.640625 -24.625 C -0.253906 -26.550781 0.226562 -28.34375 0.8125 -30 C 1.40625 -31.65625 2.078125 -33.003906 2.828125 -34.046875 C 3.585938 -35.097656 4.445312 -35.695312 5.40625 -35.84375 C 6.082031 -35.945312 6.632812 -35.820312 7.0625 -35.46875 C 7.5 -35.113281 7.789062 -34.4375 7.9375 -33.4375 C 8.132812 -32.15625 8.082031 -30.722656 7.78125 -29.140625 C 7.488281 -27.554688 7.207031 -25.957031 6.9375 -24.34375 C 6.675781 -22.738281 6.648438 -21.25 6.859375 -19.875 C 7.046875 -18.601562 7.507812 -17.625 8.25 -16.9375 C 8.988281 -16.257812 9.96875 -16.015625 11.1875 -16.203125 C 12.875 -16.460938 14.082031 -17.265625 14.8125 -18.609375 C 15.550781 -19.953125 15.96875 -21.378906 16.0625 -22.890625 C 16.164062 -24.035156 16.144531 -25.070312 16 -26 C 15.863281 -26.9375 15.742188 -27.898438 15.640625 -28.890625 C 15.535156 -29.878906 15.550781 -30.992188 15.6875 -32.234375 C 16.007812 -34.421875 16.597656 -35.90625 17.453125 -36.6875 C 18.316406 -37.476562 19.53125 -37.992188 21.09375 -38.234375 C 23.957031 -38.671875 25.625 -37.335938 26.09375 -34.234375 C 26.257812 -33.128906 26.132812 -31.878906 25.71875 -30.484375 C 25.300781 -29.097656 24.882812 -27.707031 24.46875 -26.3125 C 24.050781 -24.914062 23.929688 -23.644531 24.109375 -22.5 C 24.296875 -21.226562 24.753906 -20.25 25.484375 -19.5625 C 26.222656 -18.882812 27.207031 -18.640625 28.4375 -18.828125 C 29.675781 -19.015625 30.703125 -19.4375 31.515625 -20.09375 C 32.328125 -20.75 32.984375 -21.5625 33.484375 -22.53125 C 33.148438 -23.550781 32.832031 -24.550781 32.53125 -25.53125 C 32.238281 -26.519531 32.015625 -27.535156 31.859375 -28.578125 C 31.554688 -30.585938 31.515625 -32.472656 31.734375 -34.234375 C 31.960938 -35.992188 32.515625 -37.46875 33.390625 -38.65625 C 34.265625 -39.84375 35.476562 -40.554688 37.03125 -40.796875 C 38.800781 -41.066406 40.035156 -40.421875 40.734375 -38.859375 C 41.441406 -37.304688 41.632812 -35.046875 41.3125 -32.078125 C 41 -29.117188 40.179688 -25.675781 38.859375 -21.75 C 39.085938 -21.726562 39.296875 -21.734375 39.484375 -21.765625 C 39.671875 -21.796875 39.851562 -21.820312 40.03125 -21.84375 C 41.039062 -22 41.960938 -22.410156 42.796875 -23.078125 C 43.628906 -23.742188 44.363281 -24.726562 45 -26.03125 Z M 45 -26.03125 "/></g></g></g><g fill="#233667" fill-opacity="1"><g transform="translate(273.276025, 249.559789)"><g><path d="M 8.140625 -39.140625 C 6.492188 -38.890625 5.019531 -39.023438 3.71875 -39.546875 C 2.425781 -40.066406 1.640625 -41.238281 1.359375 -43.0625 C 0.992188 -45.476562 1.414062 -47.238281 2.625 -48.34375 C 3.832031 -49.445312 5.375 -50.140625 7.25 -50.421875 C 8.976562 -50.679688 10.507812 -50.507812 11.84375 -49.90625 C 13.175781 -49.3125 13.914062 -47.9375 14.0625 -45.78125 C 14.195312 -43.644531 13.6875 -42.070312 12.53125 -41.0625 C 11.382812 -40.050781 9.921875 -39.410156 8.140625 -39.140625 Z M 6.15625 -0.9375 C 3.875 -0.59375 2.125 -1.179688 0.90625 -2.703125 C -0.300781 -4.222656 -1.082031 -6.171875 -1.4375 -8.546875 C -1.6875 -10.140625 -1.785156 -11.847656 -1.734375 -13.671875 C -1.691406 -15.503906 -1.539062 -17.273438 -1.28125 -18.984375 C -0.4375 -24.210938 0.535156 -28.273438 1.640625 -31.171875 C 2.742188 -34.078125 4.273438 -35.675781 6.234375 -35.96875 C 7.785156 -36.207031 8.71875 -35.300781 9.03125 -33.25 C 9.238281 -31.882812 9.1875 -30.441406 8.875 -28.921875 C 8.570312 -27.398438 8.269531 -25.90625 7.96875 -24.4375 C 7.675781 -22.96875 7.625 -21.613281 7.8125 -20.375 C 7.988281 -19.238281 8.40625 -18.429688 9.0625 -17.953125 C 9.726562 -17.472656 10.519531 -17.300781 11.4375 -17.4375 C 12.488281 -17.59375 13.316406 -18.039062 13.921875 -18.78125 C 14.523438 -19.53125 15.09375 -20.457031 15.625 -21.5625 C 15.90625 -22.175781 16.34375 -22.457031 16.9375 -22.40625 C 17.53125 -22.351562 18.054688 -22.113281 18.515625 -21.6875 C 18.972656 -21.269531 19.117188 -20.835938 18.953125 -20.390625 C 18.617188 -19.585938 18.242188 -18.453125 17.828125 -16.984375 C 17.421875 -15.523438 16.90625 -13.929688 16.28125 -12.203125 C 15.664062 -10.484375 14.90625 -8.816406 14 -7.203125 C 13.101562 -5.597656 12.015625 -4.21875 10.734375 -3.0625 C 9.460938 -1.914062 7.9375 -1.207031 6.15625 -0.9375 Z M 6.15625 -0.9375 "/></g></g></g><g fill="#233667" fill-opacity="1"><g transform="translate(290.116963, 246.99893)"><g><path d="M 6.921875 -1.046875 C 4.359375 -0.660156 2.351562 -1.164062 0.90625 -2.5625 C -0.539062 -3.957031 -1.457031 -5.921875 -1.84375 -8.453125 C -2.226562 -10.984375 -2.144531 -13.78125 -1.59375 -16.84375 C -1.25 -18.675781 -0.867188 -20.648438 -0.453125 -22.765625 C -0.0351562 -24.878906 0.429688 -27.191406 0.953125 -29.703125 C -0.0546875 -29.546875 -0.863281 -29.691406 -1.46875 -30.140625 C -2.070312 -30.585938 -2.503906 -31.148438 -2.765625 -31.828125 C -3.035156 -32.515625 -3.132812 -33.132812 -3.0625 -33.6875 C -2.988281 -34.238281 -2.742188 -34.546875 -2.328125 -34.609375 C -0.316406 -34.910156 1.171875 -35.707031 2.140625 -37 C 3.117188 -38.289062 3.742188 -39.582031 4.015625 -40.875 C 4.535156 -43.007812 5.140625 -44.398438 5.828125 -45.046875 C 6.523438 -45.691406 7.304688 -46.082031 8.171875 -46.21875 C 9.453125 -46.40625 10.332031 -45.988281 10.8125 -44.96875 C 11.300781 -43.945312 11.179688 -42.28125 10.453125 -39.96875 C 10.117188 -38.800781 9.96875 -37.929688 10 -37.359375 C 10.039062 -36.785156 10.378906 -36.546875 11.015625 -36.640625 L 14.578125 -37.1875 C 15.035156 -37.25 15.382812 -36.96875 15.625 -36.34375 C 15.863281 -35.71875 15.960938 -34.984375 15.921875 -34.140625 C 15.890625 -33.304688 15.707031 -32.535156 15.375 -31.828125 C 15.039062 -31.117188 14.53125 -30.710938 13.84375 -30.609375 C 11.738281 -30.285156 10.191406 -29.96875 9.203125 -29.65625 C 8.222656 -29.351562 7.578125 -28.847656 7.265625 -28.140625 C 6.953125 -27.441406 6.691406 -26.28125 6.484375 -24.65625 C 6.097656 -22.1875 6.484375 -20.3125 7.640625 -19.03125 C 8.796875 -17.757812 10.378906 -17.273438 12.390625 -17.578125 C 13.765625 -17.785156 14.9375 -18.273438 15.90625 -19.046875 C 16.882812 -19.828125 17.640625 -20.796875 18.171875 -21.953125 C 18.441406 -22.566406 18.875 -22.835938 19.46875 -22.765625 C 20.070312 -22.691406 20.597656 -22.453125 21.046875 -22.046875 C 21.503906 -21.648438 21.65625 -21.207031 21.5 -20.71875 C 21.207031 -19.875 20.820312 -18.710938 20.34375 -17.234375 C 19.863281 -15.765625 19.265625 -14.160156 18.546875 -12.421875 C 17.835938 -10.679688 16.953125 -9.003906 15.890625 -7.390625 C 14.828125 -5.773438 13.554688 -4.390625 12.078125 -3.234375 C 10.597656 -2.078125 8.878906 -1.347656 6.921875 -1.046875 Z M 6.921875 -1.046875 "/></g></g></g><g fill="#233667" fill-opacity="1"><g transform="translate(309.559358, 244.042489)"><g><path d="M 1.9375 -0.15625 C 1.070312 -0.0195312 0.503906 -0.863281 0.234375 -2.6875 C -0.0234375 -4.375 0.160156 -6.023438 0.796875 -7.640625 C 1.441406 -9.253906 2.347656 -10.804688 3.515625 -12.296875 C 4.691406 -13.785156 5.957031 -15.191406 7.3125 -16.515625 C 8.675781 -17.847656 9.972656 -19.085938 11.203125 -20.234375 C 12.429688 -21.378906 13.421875 -22.40625 14.171875 -23.3125 C 14.921875 -24.21875 15.253906 -24.960938 15.171875 -25.546875 C 14.972656 -26.835938 13.800781 -27.320312 11.65625 -27 C 9.414062 -26.65625 7.539062 -25.710938 6.03125 -24.171875 C 4.519531 -22.628906 3.195312 -20.488281 2.0625 -17.75 L -1.28125 -18.984375 C -0.382812 -21.140625 0.304688 -23.375 0.796875 -25.6875 C 1.285156 -28 1.632812 -30.738281 1.84375 -33.90625 C 2.007812 -35.613281 2.632812 -36.550781 3.71875 -36.71875 C 4.445312 -36.820312 4.984375 -36.769531 5.328125 -36.5625 C 5.671875 -36.363281 5.921875 -36.109375 6.078125 -35.796875 C 6.242188 -35.492188 6.4375 -35.234375 6.65625 -35.015625 C 6.875 -34.796875 7.257812 -34.726562 7.8125 -34.8125 C 8.351562 -34.894531 8.84375 -35.085938 9.28125 -35.390625 C 9.726562 -35.691406 10.285156 -36.007812 10.953125 -36.34375 C 11.628906 -36.675781 12.539062 -36.929688 13.6875 -37.109375 C 15.332031 -37.359375 16.757812 -37.429688 17.96875 -37.328125 C 19.175781 -37.234375 20.382812 -37.253906 21.59375 -37.390625 C 22.8125 -37.535156 24.238281 -38.054688 25.875 -38.953125 C 26.226562 -39.148438 26.570312 -39.128906 26.90625 -38.890625 C 27.238281 -38.660156 27.382812 -38.363281 27.34375 -38 C 27.351562 -35.5625 26.914062 -33.375 26.03125 -31.4375 C 25.15625 -29.507812 24.066406 -27.816406 22.765625 -26.359375 C 21.472656 -24.910156 20.195312 -23.632812 18.9375 -22.53125 C 17.6875 -21.4375 16.65625 -20.5 15.84375 -19.71875 C 15.03125 -18.9375 14.664062 -18.25 14.75 -17.65625 C 14.925781 -16.507812 16.632812 -16.179688 19.875 -16.671875 C 22.03125 -17.003906 23.972656 -17.828125 25.703125 -19.140625 C 27.429688 -20.460938 28.703125 -21.972656 29.515625 -23.671875 C 30.085938 -24.835938 30.6875 -25.441406 31.3125 -25.484375 C 31.945312 -25.535156 32.4375 -25.257812 32.78125 -24.65625 C 33.125 -24.0625 33.15625 -23.320312 32.875 -22.4375 C 32.582031 -21.550781 32.175781 -20.351562 31.65625 -18.84375 C 31.144531 -17.34375 30.484375 -15.726562 29.671875 -14 C 28.859375 -12.269531 27.863281 -10.59375 26.6875 -8.96875 C 25.507812 -7.34375 24.109375 -5.945312 22.484375 -4.78125 C 20.867188 -3.625 19.015625 -2.890625 16.921875 -2.578125 C 15.359375 -2.335938 14.160156 -2.328125 13.328125 -2.546875 C 12.503906 -2.765625 11.84375 -3.070312 11.34375 -3.46875 C 10.84375 -3.863281 10.335938 -4.195312 9.828125 -4.46875 C 9.316406 -4.738281 8.65625 -4.8125 7.84375 -4.6875 C 6.695312 -4.519531 5.875 -4.210938 5.375 -3.765625 C 4.882812 -3.316406 4.523438 -2.835938 4.296875 -2.328125 C 4.078125 -1.828125 3.820312 -1.367188 3.53125 -0.953125 C 3.238281 -0.535156 2.707031 -0.269531 1.9375 -0.15625 Z M 1.9375 -0.15625 "/></g></g></g><g clip-path="url(#e55e21718f)"><g clip-path="url(#4be6e851a3)"><g clip-path="url(#1573f78312)"><path fill="#c38d14" d="M 183.828125 170.640625 L 181.207031 169.710938 L 179.523438 171.949219 L 181.148438 174.21875 C 180.796875 175.042969 180.566406 175.925781 180.472656 176.84375 L 177.949219 178.046875 L 178.339844 180.816406 L 181.097656 181.273438 C 181.441406 182.128906 181.910156 182.914062 182.472656 183.609375 L 181.539062 186.242188 L 183.777344 187.925781 L 186.039062 186.304688 C 186.871094 186.660156 187.757812 186.894531 188.679688 186.992188 L 189.875 189.5 L 192.648438 189.109375 L 193.101562 186.378906 C 193.96875 186.03125 194.761719 185.558594 195.46875 184.988281 L 198.070312 185.910156 L 199.753906 183.671875 L 198.152344 181.433594 C 198.515625 180.59375 198.75 179.691406 198.847656 178.757812 L 201.328125 177.574219 L 200.9375 174.800781 L 198.226562 174.351562 C 197.875 173.480469 197.398438 172.679688 196.816406 171.972656 L 197.738281 169.378906 L 195.5 167.695312 L 193.253906 169.300781 C 192.417969 168.945312 191.523438 168.710938 190.59375 168.617188 L 189.402344 166.121094 L 186.628906 166.511719 L 186.175781 169.25 C 185.316406 169.597656 184.53125 170.070312 183.828125 170.640625 Z M 195.722656 176.949219 C 196.195312 180.300781 193.863281 183.398438 190.515625 183.871094 C 187.164062 184.34375 184.066406 182.011719 183.59375 178.664062 C 183.121094 175.3125 185.453125 172.214844 188.800781 171.742188 C 192.152344 171.269531 195.25 173.601562 195.722656 176.949219 Z M 195.722656 176.949219 " fill-opacity="1" fill-rule="nonzero"/></g></g></g><g clip-path="url(#a68e434075)"><g clip-path="url(#b329c33de1)"><g clip-path="url(#6289faeac6)"><path fill="#c38d14" d="M 174.300781 180.441406 L 175.8125 181.433594 L 177.234375 180.273438 L 176.5625 178.597656 C 176.921875 178.117188 177.214844 177.582031 177.417969 177 L 179.183594 176.632812 L 179.367188 174.804688 L 177.710938 174.097656 C 177.621094 173.488281 177.441406 172.90625 177.183594 172.363281 L 178.171875 170.855469 L 177.011719 169.433594 L 175.332031 170.105469 C 174.851562 169.75 174.320312 169.464844 173.742188 169.257812 L 173.371094 167.484375 L 171.546875 167.300781 L 170.828125 168.972656 C 170.230469 169.0625 169.652344 169.242188 169.121094 169.496094 L 167.59375 168.496094 L 166.171875 169.65625 L 166.855469 171.355469 C 166.503906 171.828125 166.21875 172.355469 166.015625 172.921875 L 164.222656 173.296875 L 164.039062 175.121094 L 165.722656 175.84375 C 165.8125 176.441406 165.984375 177.011719 166.238281 177.542969 L 165.234375 179.074219 L 166.394531 180.496094 L 168.089844 179.816406 C 168.5625 180.171875 169.089844 180.457031 169.664062 180.664062 L 170.035156 182.445312 L 171.859375 182.628906 L 172.574219 180.960938 C 173.179688 180.875 173.761719 180.699219 174.300781 180.441406 Z M 171.316406 178.960938 C 169.109375 178.742188 167.5 176.773438 167.722656 174.566406 C 167.941406 172.359375 169.910156 170.75 172.113281 170.96875 C 174.320312 171.191406 175.933594 173.15625 175.710938 175.363281 C 175.492188 177.570312 173.523438 179.183594 171.316406 178.960938 Z M 171.316406 178.960938 " fill-opacity="1" fill-rule="nonzero"/></g></g></g><g clip-path="url(#cc7edd35a4)"><g clip-path="url(#77ed60c84e)"><g clip-path="url(#f87499494b)"><path fill="#c38d14" d="M 177.984375 159.691406 C 177.53125 159.804688 177.089844 159.984375 176.679688 160.234375 L 175.386719 159.558594 L 174.355469 160.59375 L 175.03125 161.886719 C 174.78125 162.296875 174.601562 162.738281 174.488281 163.191406 L 173.097656 163.628906 L 173.101562 165.089844 L 174.484375 165.523438 C 174.597656 165.980469 174.777344 166.425781 175.027344 166.839844 L 174.359375 168.125 L 175.390625 169.15625 L 176.671875 168.488281 C 177.085938 168.742188 177.535156 168.925781 177.996094 169.039062 L 178.425781 170.414062 L 179.886719 170.410156 L 180.316406 169.042969 C 180.78125 168.925781 181.230469 168.742188 181.648438 168.492188 L 182.921875 169.152344 L 183.953125 168.121094 L 183.289062 166.847656 C 183.542969 166.429688 183.726562 165.980469 183.839844 165.515625 L 185.210938 165.085938 L 185.210938 163.625 L 183.835938 163.191406 C 183.722656 162.734375 183.539062 162.285156 183.285156 161.871094 L 183.953125 160.589844 L 182.917969 159.558594 L 181.636719 160.226562 C 181.21875 159.980469 180.777344 159.800781 180.320312 159.6875 L 179.882812 158.300781 L 178.421875 158.300781 Z M 181.421875 162.105469 C 182.667969 163.351562 182.667969 165.375 181.421875 166.621094 C 180.175781 167.871094 178.152344 167.871094 176.902344 166.625 C 175.65625 165.375 175.65625 163.355469 176.902344 162.105469 C 178.148438 160.859375 180.171875 160.855469 181.421875 162.105469 Z M 181.421875 162.105469 " fill-opacity="1" fill-rule="nonzero"/></g></g></g><g clip-path="url(#7895d04c96)"><g clip-path="url(#d12b3c75e3)"><g clip-path="url(#49ab9a921c)"><g clip-path="url(#1d6db6389e)"><path fill="#233667" d="M 208.058594 213.910156 L 176.179688 219.230469 C 175.960938 219.265625 175.78125 219.058594 175.847656 218.847656 L 177.515625 213.714844 C 177.546875 213.609375 177.636719 213.53125 177.746094 213.511719 L 204.71875 209.011719 C 204.828125 208.996094 204.9375 209.039062 205.003906 209.128906 L 208.246094 213.441406 C 208.378906 213.617188 208.277344 213.875 208.058594 213.910156 Z M 246.742188 208.007812 L 231.339844 197.007812 C 230.8125 196.632812 230.160156 196.480469 229.523438 196.585938 L 150.253906 209.8125 C 149.613281 209.921875 149.046875 210.273438 148.667969 210.800781 L 137.671875 226.207031 C 137.296875 226.730469 137.144531 227.386719 137.25 228.023438 C 137.472656 229.351562 138.726562 230.246094 140.054688 230.027344 L 245.730469 212.394531 C 247.054688 212.171875 247.953125 210.917969 247.730469 209.589844 C 247.625 208.953125 247.269531 208.382812 246.742188 208.007812 " fill-opacity="1" fill-rule="nonzero"/></g></g></g></g><g clip-path="url(#3325f4faf7)"><g clip-path="url(#dbd882ac2e)"><g clip-path="url(#2a4390a4be)"><path fill="#233667" d="M 217.277344 141.398438 L 143.917969 153.640625 C 141.792969 153.992188 140.347656 156.019531 140.703125 158.140625 L 147.96875 201.695312 C 148.324219 203.816406 150.351562 205.265625 152.472656 204.910156 L 225.832031 192.671875 C 227.953125 192.316406 229.402344 190.289062 229.046875 188.167969 L 221.777344 144.613281 C 221.425781 142.492188 219.398438 141.042969 217.277344 141.398438 Z M 217.414062 145.964844 L 224.476562 188.304688 L 152.335938 200.34375 L 145.269531 158.003906 L 217.414062 145.964844 " fill-opacity="1" fill-rule="nonzero"/></g></g></g></svg>